<svg width="140" height="44" viewBox="0 0 140 44" fill="none" xmlns="http://www.w3.org/2000/svg">
<g clip-path="url(#clip0_631_2082)">
<path d="M64.0059 35.6196H61.9297V40.1631H78.8463V38.0893H64.0059V35.6196Z" fill="black"/>
<path d="M56.9911 37.0081H41.9453V39.0967H56.9911V40.1632H59.0648V27.4238H56.9911V37.0081Z" fill="black"/>
<path d="M4.92452 27.9731C2.2049 27.9731 0 30.178 0 32.8952C0 35.6148 2.2049 37.8197 4.92452 37.8197C7.64415 37.8197 9.84905 35.6148 9.84905 32.8952C9.84905 30.178 7.64415 27.9731 4.92452 27.9731ZM4.92452 35.6371C3.41252 35.6371 2.1851 34.4097 2.1851 32.8952C2.1851 31.3807 3.41252 30.1558 4.92452 30.1558C6.439 30.1558 7.66395 31.3832 7.66395 32.8952C7.66395 34.4121 6.439 35.6371 4.92452 35.6371Z" fill="black"/>
<path d="M19.1636 27.4238H17.0898V40.1608H19.1636V27.4238Z" fill="black"/>
<path d="M13.4306 29.5H10.5625V31.5738H13.4306V34.0138H10.5625V36.0875H13.4306V40.1632H15.5043V27.4238H13.4306V29.5Z" fill="black"/>
<path d="M75.8489 36.0974H77.9251V27.4238H75.8489V30.1088H72.7383V32.1825H75.8489V36.0974Z" fill="black"/>
<path d="M62.8337 34.4592L66.7659 31.0442L70.7006 34.4592L72.0616 32.8953L68.7357 30.0049H71.6013V27.9312H61.9305V30.0049H64.7986L61.4727 32.8953L62.8337 34.4592Z" fill="black"/>
<path d="M46.6419 35.5035C48.8814 35.5035 50.6978 33.6895 50.6978 31.4475C50.6978 29.208 48.8814 27.3916 46.6419 27.3916C44.4023 27.3916 42.5859 29.2055 42.5859 31.4475C42.5884 33.6895 44.4023 35.5035 46.6419 35.5035ZM46.6419 29.5718C47.6763 29.5718 48.5176 30.4131 48.5176 31.4475C48.5176 32.4819 47.6787 33.3233 46.6419 33.3233C45.6075 33.3233 44.7661 32.4844 44.7661 31.4475C44.7661 30.4107 45.6075 29.5718 46.6419 29.5718Z" fill="black"/>
<path d="M90.347 35.083C87.9219 35.083 85.957 37.0479 85.957 39.473C85.957 41.8981 87.9219 43.863 90.347 43.863C92.7722 43.863 94.737 41.8981 94.737 39.473C94.737 37.0503 92.7722 35.083 90.347 35.083ZM90.347 41.6804C89.1295 41.6804 88.1397 40.693 88.1397 39.473C88.1397 38.253 89.127 37.2656 90.347 37.2656C91.5646 37.2656 92.5544 38.253 92.5544 39.473C92.5544 40.693 91.567 41.6804 90.347 41.6804Z" fill="black"/>
<path d="M89.859 31.8115H82.7964V29.9951H89.859V27.9214H80.7227V33.8853H89.859V31.8115Z" fill="black"/>
<path d="M96.1036 30.1707V27.4238H94.0273V34.4468H96.1036V32.2444H99.2167V30.1707H96.1036Z" fill="black"/>
<path d="M30.8367 25.684L36.4764 28.953L37.5133 27.1564L30.8367 23.2886L24.1602 27.1564L25.197 28.953L30.8367 25.684Z" fill="black"/>
<path d="M31.8741 32.499V31.6699H39.2955V29.668H22.3789V31.6699H29.8003V32.499H22.3789V34.5009H37.2218V35.3299H22.3789V40.1629H39.2955V38.1609H24.4526V37.3319H39.2955V35.9659V32.499H31.8741Z" fill="black"/>
<path d="M140 0H101.168V25.4739H140V0Z" fill="#E4032E"/>
<path d="M101.407 8.41174C101.456 8.43402 101.515 8.42907 101.558 8.45876C101.642 8.46124 101.642 8.43896 101.661 8.3771C101.699 8.38205 101.743 8.39937 101.778 8.3771C101.887 8.3375 101.872 8.20882 101.916 8.09994C101.926 8.07519 101.961 8.0554 101.973 8.03065C101.993 7.97868 101.978 7.92176 102.008 7.8797C102.025 7.87227 102.038 7.86485 102.055 7.85742C102.072 7.83515 102.07 7.79803 102.09 7.77576C102.109 7.75596 102.146 7.75596 102.169 7.74112C102.189 7.7139 102.206 7.68915 102.226 7.66193C102.236 7.65698 102.248 7.6545 102.26 7.64955C102.265 7.62976 102.27 7.60996 102.27 7.59264C102.297 7.54315 102.357 7.4986 102.387 7.45406C102.394 7.43179 102.401 7.40704 102.409 7.38477C102.436 7.36002 102.463 7.33775 102.49 7.31548C102.567 7.20907 102.632 7.10761 102.708 7.00615C102.733 6.9715 102.782 6.95418 102.812 6.92449C102.881 6.93438 102.973 6.96903 103.008 7.01605C103.023 7.03585 103.013 7.07544 103.03 7.09524C103.047 7.11503 103.094 7.10761 103.112 7.12988C103.126 7.15463 103.124 7.19422 103.146 7.21154C103.169 7.21649 103.193 7.21897 103.216 7.22392C103.25 7.24866 103.265 7.30806 103.307 7.32785C103.369 7.36002 103.436 7.3328 103.503 7.3625C103.555 7.38724 103.574 7.45901 103.616 7.49118C103.639 7.49613 103.663 7.5085 103.686 7.51345C103.706 7.5382 103.693 7.58274 103.708 7.60749C103.78 7.72132 103.985 7.89702 104.121 7.94156C104.235 7.97868 104.411 7.90197 104.468 7.86237C104.507 7.83515 104.532 7.77329 104.582 7.75844C104.616 7.76339 104.651 7.76834 104.685 7.77081C104.772 7.75349 104.861 7.74854 104.963 7.72627C105.255 7.6545 105.586 7.57284 105.858 7.49613C105.905 7.49118 105.952 7.4887 105.997 7.48375C106.037 7.46891 106.084 7.41941 106.123 7.40209C106.15 7.39714 106.178 7.39467 106.202 7.38972C106.225 7.3724 106.22 7.32785 106.237 7.31053C106.254 7.29073 106.287 7.28826 106.306 7.27588C106.4 7.20412 106.46 7.04079 106.477 6.89479C106.626 6.8552 106.777 6.75621 106.903 6.68692C106.94 6.67455 106.979 6.66465 107.017 6.65228C107.061 6.62258 107.069 6.54339 107.108 6.5137C107.148 6.50132 107.185 6.49143 107.222 6.47905C107.254 6.45678 107.455 6.19447 107.474 6.15487C107.509 6.09301 107.487 6.01382 107.512 5.93711C107.628 5.53127 107.427 5.07593 107.259 4.8062C107.227 4.75423 107.155 4.73938 107.121 4.68989C106.851 4.30137 106.376 4.10093 105.985 3.83367C105.853 3.74458 105.68 3.72973 105.547 3.63817C105.517 3.61837 105.514 3.56641 105.49 3.54413C105.453 3.51691 105.398 3.51691 105.364 3.48722C105.235 3.38081 105.106 3.2744 104.973 3.17541C104.94 3.14324 104.911 3.11355 104.878 3.08138C104.797 3.03436 104.728 3.00466 104.661 2.9428C104.653 2.923 104.646 2.90568 104.638 2.88341C104.591 2.83391 104.505 2.78937 104.465 2.73493C104.455 2.70523 104.443 2.67306 104.431 2.64089C104.398 2.59387 104.327 2.56665 104.292 2.51716C104.25 2.45529 104.23 2.386 104.188 2.33156C104.146 2.27712 104.158 2.20288 104.129 2.13359C104.074 1.99749 103.931 1.83169 103.99 1.59165C104.015 1.49019 104.082 1.41595 104.116 1.33428C104.126 1.29221 104.134 1.25015 104.141 1.20808C104.146 1.1957 104.27 0.987835 104.28 0.975462C104.302 0.95319 104.337 0.948241 104.361 0.930918C104.455 0.859154 104.552 0.755219 104.671 0.710676C104.737 0.683455 104.814 0.700777 104.866 0.688404C104.898 0.68098 104.935 0.64881 104.96 0.641386C105.074 0.604266 105.163 0.626538 105.282 0.596842C105.368 0.574571 105.745 0.480534 105.856 0.515179C105.957 0.549824 106.047 0.631487 106.143 0.676031C106.141 0.760168 106.103 0.802237 106.121 0.8839C106.183 1.16848 106.299 1.34418 106.512 1.47286C106.574 1.50751 106.682 1.48524 106.732 1.52978C106.754 1.56937 106.725 1.63866 106.742 1.69311C106.769 1.77477 106.838 1.79457 106.903 1.84158C106.984 1.83416 107.044 1.78467 107.086 1.73765C107.14 1.74507 107.172 1.77477 107.2 1.80694C107.247 1.80694 107.291 1.80694 107.338 1.80694C107.356 1.79952 107.361 1.75497 107.373 1.73765C107.403 1.703 107.457 1.69558 107.487 1.65846C107.578 1.66094 107.586 1.69311 107.635 1.71538C107.714 1.75002 107.821 1.74507 107.912 1.7624C108.11 1.57432 108.232 1.41842 108.177 1.04475C108.177 0.938342 108.177 0.829458 108.177 0.723049C108.167 0.688404 108.12 0.666132 108.11 0.631487C108.078 0.527552 108.162 0.411245 108.133 0.285038C108.12 0.230596 108.078 0.198426 108.066 0.158832C108.066 0.126661 108.066 0.0969659 108.066 0.0672702C108.056 0.0449985 108.039 0.0252014 108.019 0.00292969H104.376C104.361 0.0153029 104.344 0.0326253 104.329 0.0425239C104.307 0.0598463 104.272 0.0598463 104.25 0.0771688C104.225 0.0969659 104.208 0.141509 104.181 0.156357C104.082 0.218223 103.965 0.240495 103.871 0.30731C103.839 0.327107 103.829 0.374125 103.802 0.398871C103.765 0.435991 103.703 0.443415 103.663 0.480534C103.616 0.530027 103.607 0.614165 103.56 0.666132C103.535 0.690879 103.498 0.703252 103.478 0.735422C103.438 0.802237 103.446 0.881425 103.409 0.955665C103.282 1.2056 103.144 1.62877 103.223 1.96037C103.258 2.094 103.218 2.19298 103.27 2.29444C103.307 2.36373 103.386 2.41323 103.443 2.46767C103.54 2.5617 103.631 2.68791 103.706 2.80174C103.75 2.86608 103.748 2.9329 103.787 3.00961C103.844 3.12839 103.933 3.21996 104.005 3.32142C104.022 3.34616 104.02 3.37833 104.037 3.40308C104.094 3.47237 104.176 3.51691 104.245 3.5763C104.27 3.5961 104.275 3.64807 104.302 3.66787C104.337 3.69509 104.381 3.70499 104.403 3.73716C104.443 3.7916 104.468 3.87079 104.52 3.91038C104.547 3.93018 104.591 3.93018 104.611 3.95492C104.641 3.99452 104.646 4.04896 104.681 4.0836C104.698 4.10093 104.732 4.10093 104.75 4.11825C104.777 4.14547 104.789 4.19744 104.817 4.22218C104.851 4.23456 104.886 4.24693 104.921 4.25683C104.975 4.29147 105.015 4.36076 105.069 4.39541C105.109 4.42016 105.146 4.41026 105.195 4.43005C105.22 4.43995 105.245 4.47212 105.265 4.48697C105.339 4.53646 105.423 4.55379 105.495 4.60328C105.609 4.68494 105.683 4.82599 105.804 4.90271C105.759 5.26648 105.47 5.52384 105.23 5.69954C105.153 5.75646 105.101 5.87524 105.022 5.91978C104.945 5.96185 104.864 5.9668 104.792 6.01382C104.648 6.10538 104.48 6.23406 104.297 6.27861C104.176 6.3083 104.129 6.22416 104.01 6.24396C104 6.24644 103.97 6.26376 103.963 6.26623C103.871 6.28356 103.753 6.23654 103.644 6.24396C103.597 6.25139 103.55 6.25881 103.505 6.26623C103.495 6.26376 103.468 6.23406 103.458 6.23159C103.369 6.20437 103.198 6.22911 103.124 6.24396C103.119 6.23901 103.117 6.23654 103.112 6.23159C103.119 6.05836 103.213 5.88019 103.169 5.68964C103.045 5.15265 103.072 4.81857 102.55 4.66267C102.463 4.63545 102.367 4.60328 102.26 4.61565C102.26 4.60328 102.26 4.59338 102.26 4.58101C102.255 4.58101 102.245 4.58101 102.238 4.58101C102.211 4.6404 102.154 4.72701 102.181 4.83589C102.191 4.87301 102.226 4.93488 102.213 4.98437C102.203 5.02892 102.169 5.08583 102.156 5.12295C102.156 5.14275 102.156 5.16255 102.156 5.17987C102.149 5.17987 102.142 5.17987 102.134 5.17987C102.127 5.20709 102.119 5.23431 102.112 5.26153C102.104 5.26153 102.097 5.26153 102.09 5.26153C102.09 5.26401 102.109 5.31845 102.099 5.34319C102.095 5.35804 102.06 5.38279 102.055 5.40011C102.023 5.48672 102.025 5.53869 101.986 5.60798C101.919 5.72181 101.805 5.82327 101.733 5.93216C101.706 5.97423 101.706 6.01877 101.676 6.05836C101.639 6.11033 101.57 6.1524 101.54 6.20932C101.513 6.25633 101.501 6.30335 101.459 6.33552C101.374 6.39491 101.263 6.45431 101.164 6.50875V8.14448C101.174 8.18655 101.184 8.22862 101.206 8.26079C101.243 8.30781 101.352 8.387 101.407 8.41174Z" fill="white"/>
<path d="M133.849 0.848766C133.83 0.932904 133.775 1.00219 133.745 1.07891C133.711 1.17542 133.721 1.24966 133.689 1.35607C133.666 1.43278 133.609 1.51692 133.585 1.59858C133.538 1.74706 133.5 1.91038 133.458 2.05886C133.446 2.10835 133.463 2.16527 133.481 2.18507C133.473 2.27416 133.414 2.26921 133.389 2.33355C133.352 2.43253 133.369 2.55131 133.332 2.65772C133.32 2.68989 133.283 2.71959 133.275 2.75176C133.27 2.82105 133.268 2.89034 133.265 2.95963C133.186 3.23926 133.107 3.53869 133.035 3.84802C133.008 3.96186 133.01 4.07074 132.991 4.1722C132.991 4.22912 132.991 4.28851 132.991 4.34542C132.966 4.41224 132.907 4.51865 132.887 4.58794C132.864 4.66465 132.904 4.72157 132.874 4.80818C132.85 4.88242 132.793 4.96903 132.77 5.05069C132.748 5.13236 132.783 5.22392 132.77 5.29321C132.766 5.32538 132.733 5.36745 132.726 5.39714C132.726 5.43674 132.726 5.47386 132.726 5.51345C132.701 5.61739 132.674 5.82031 132.622 5.90444C132.624 6.02075 132.585 5.98858 132.518 6.03065C132.474 6.09994 132.498 6.20635 132.474 6.29544C132.459 6.34493 132.422 6.43896 132.392 6.48351C132.37 6.51568 132.31 6.55775 132.303 6.59734C132.28 6.66911 132.454 6.85718 132.474 6.92152C132.506 7.01803 132.461 7.08979 132.486 7.16403C132.508 7.23827 132.513 7.42634 132.496 7.49811C132.491 7.52038 132.474 7.58719 132.486 7.62679C132.511 7.72082 132.558 7.94602 132.612 8.02026C132.639 8.04253 132.667 8.06727 132.694 8.08955C132.716 8.12419 132.716 8.16131 132.738 8.19348C132.788 8.26772 133.028 8.43847 133.174 8.40135C133.226 8.38898 133.283 8.34938 133.325 8.33206C133.387 8.30731 133.451 8.28999 133.486 8.23802C133.575 8.11429 133.547 7.92869 133.59 7.753C133.597 7.7233 133.627 7.63916 133.624 7.60452C133.614 7.52285 133.557 7.38427 133.59 7.25807C133.634 7.07247 133.661 6.8844 133.706 6.69385C133.708 6.61219 133.711 6.533 133.716 6.45134C133.708 6.42659 133.679 6.39442 133.693 6.3474C133.698 6.32513 133.731 6.28554 133.738 6.25584C133.755 6.19398 133.738 6.14696 133.76 6.09499C133.775 6.06035 133.815 6.02323 133.83 5.98116C133.837 5.93414 133.844 5.8896 133.852 5.8401C133.864 5.81041 133.899 5.77329 133.911 5.73864C133.936 5.65203 133.891 5.55057 133.911 5.47386C133.916 5.44911 133.948 5.41447 133.956 5.39219C133.956 5.3427 133.956 5.29073 133.956 5.24124C133.971 5.18927 133.971 5.11751 133.99 5.04575C134.052 4.82798 134.164 4.58051 134.208 4.36522C134.203 4.32315 134.201 4.28108 134.196 4.23901C134.245 4.01382 134.24 3.76883 134.31 3.55849C134.329 3.50405 134.386 3.46693 134.404 3.41991C134.406 3.36052 134.411 3.3036 134.416 3.24669C134.446 3.16502 134.503 3.06851 134.53 2.9918C134.562 2.90024 134.545 2.826 134.577 2.74681C134.604 2.68 134.666 2.57854 134.691 2.5043C134.733 2.38304 134.763 2.26178 134.795 2.14795C134.8 2.10093 134.802 2.05639 134.807 2.00937C134.829 1.9475 134.906 1.89554 134.933 1.83615C134.968 1.75943 134.963 1.68272 135.003 1.606C135.025 1.56641 135.079 1.52187 135.094 1.47732C135.116 1.42041 135.104 1.32885 135.119 1.26945C135.144 1.16304 135.126 0.965074 135.109 0.875987C135.111 0.826495 135.114 0.777002 135.119 0.725035C135.124 0.648321 135.097 0.618625 135.084 0.574082C135.077 0.492419 135.069 0.413231 135.062 0.331568C135.01 0.212785 134.928 0.0989521 134.834 0.00244141H133.943C133.911 0.188039 133.894 0.383535 133.854 0.539437C133.822 0.65327 133.874 0.747306 133.849 0.848766Z" fill="white"/>
<path d="M130.722 1.87607C130.704 1.8439 130.66 1.80678 130.643 1.77461C130.61 1.72016 130.625 1.65582 130.596 1.59148C130.551 1.49002 130.336 1.27226 130.242 1.22029C130.175 1.18317 130.118 1.20049 130.034 1.17327C129.982 1.15842 129.918 1.10398 129.873 1.06934C129.833 1.06934 129.816 1.07429 129.794 1.09161C129.742 1.12625 129.762 1.151 129.734 1.21781C129.722 1.24998 129.677 1.28215 129.665 1.30938C129.645 1.36629 129.692 1.43806 129.702 1.4727C129.697 1.57664 129.692 1.68057 129.69 1.78451C129.682 1.80925 129.65 1.8439 129.643 1.86617C129.648 1.90081 129.65 1.93546 129.655 1.9701C129.643 2.03939 129.583 2.13343 129.564 2.20024C129.556 2.27448 129.546 2.34872 129.541 2.42049C129.514 2.50957 129.455 2.61351 129.428 2.69764C129.398 2.79168 129.418 2.94511 129.381 3.03172C129.373 3.04657 129.343 3.07379 129.334 3.09111C129.296 3.16288 129.264 3.26681 129.242 3.346C129.237 3.40787 129.235 3.46973 129.23 3.5316C129.222 3.55634 129.18 3.58356 129.173 3.61326C129.173 3.6677 129.173 3.71967 129.173 3.77411C129.118 3.96961 129.009 4.16015 128.952 4.36307C128.947 4.43979 128.947 4.5165 128.943 4.59569C128.918 4.69715 128.913 4.84068 128.873 4.93966C128.853 4.98916 128.799 5.02875 128.782 5.07824C128.777 5.11289 128.774 5.14753 128.772 5.18218C128.754 5.21187 128.556 5.45439 128.529 5.47171C128.467 5.50635 128.42 5.49893 128.344 5.52863C128.339 5.5311 128.188 5.70433 128.183 5.71422C128.121 5.82806 128.25 5.92209 128.195 6.03593C128.153 6.078 128.111 6.12006 128.069 6.16213C128.059 6.20173 128.047 6.24132 128.034 6.27844C128.007 6.31804 127.935 6.32793 127.908 6.37C127.876 6.41949 127.893 6.48878 127.861 6.53085C127.829 6.57045 127.752 6.57045 127.71 6.60014C127.688 6.62736 127.663 6.65211 127.641 6.68181C127.554 6.7412 127.468 6.76594 127.364 6.80801C127.334 6.82039 127.297 6.86493 127.272 6.8773C127.215 6.87978 127.156 6.88473 127.099 6.8872C126.968 6.92927 126.671 6.94659 126.5 6.90947C126.443 6.90947 126.386 6.90947 126.329 6.90947C126.258 6.89215 126.186 6.85008 126.121 6.82781C126.05 6.80306 125.983 6.81544 125.926 6.78079C125.871 6.74615 125.832 6.68923 125.765 6.66448C125.758 6.57787 125.725 6.47889 125.743 6.36505C125.748 6.33041 125.768 6.25617 125.753 6.2042C125.738 6.13739 125.691 6.01613 125.718 5.92704C125.721 5.91714 125.75 5.88992 125.753 5.88002C125.753 5.84538 125.753 5.81073 125.753 5.77609C125.775 5.7167 125.844 5.64988 125.869 5.56822C125.889 5.49893 125.832 5.395 125.857 5.32571C125.867 5.29601 125.911 5.24157 125.923 5.2094C125.963 5.11536 125.956 5.02133 125.993 4.92234C126 4.90254 126.03 4.87285 126.04 4.85305C126.057 4.74664 126.072 4.64271 126.084 4.53877C126.114 4.44969 126.168 4.32348 126.198 4.22697C126.198 4.19232 126.198 4.15768 126.198 4.12303C126.215 4.07602 126.265 4.03395 126.28 3.98446C126.285 3.93496 126.287 3.88547 126.29 3.83598C126.309 3.81618 126.327 3.79638 126.347 3.77906C126.354 3.72709 126.364 3.6776 126.369 3.62811C126.401 3.56624 126.483 3.53655 126.52 3.44498C126.525 3.41034 126.527 3.37569 126.53 3.34105C126.559 3.24206 126.609 3.11586 126.634 3.00697C126.658 2.89809 126.587 2.6828 126.634 2.60361C126.644 2.50462 126.797 2.3314 126.839 2.22252C126.844 2.17302 126.846 2.12106 126.851 2.07156C126.943 1.66572 126.55 1.51477 126.3 1.40341C126.243 1.37867 126.176 1.37867 126.126 1.34649C125.911 1.34402 125.891 1.6484 125.852 1.82162C125.852 1.87359 125.852 1.92803 125.852 1.98248C125.82 2.10126 125.733 2.23241 125.669 2.32892C125.654 2.34377 125.639 2.35862 125.622 2.37347C125.577 2.48483 125.577 2.58629 125.53 2.69764C125.436 2.92531 125.337 3.13813 125.255 3.39054C125.243 3.43014 125.198 3.45241 125.186 3.48458C125.159 3.54892 125.193 3.62316 125.164 3.68007C125.144 3.71967 125.087 3.76669 125.07 3.80876C125.07 3.83103 125.07 3.85577 125.07 3.87805C125.05 3.94734 125.01 4.02652 124.991 4.08592C124.986 4.11809 124.983 4.14778 124.981 4.17748C124.961 4.21954 124.906 4.27151 124.887 4.31606C124.882 4.35565 124.879 4.39277 124.877 4.43236C124.864 4.47443 124.83 4.53382 124.82 4.56847C124.82 4.60064 124.82 4.63033 124.82 4.66003C124.807 4.70705 124.765 4.75902 124.753 4.79861C124.748 4.85305 124.743 4.90502 124.741 4.95946C124.736 4.98173 124.711 5.02875 124.706 5.05102C124.711 5.09309 124.713 5.13516 124.716 5.17723C124.691 5.29849 124.619 5.47418 124.661 5.65236C124.706 5.85528 124.718 6.06562 124.763 6.27597C124.768 6.3601 124.77 6.44672 124.773 6.53085C124.785 6.54323 124.795 6.55313 124.807 6.5655C124.807 6.61004 124.807 6.65953 124.807 6.70408C124.84 6.81544 124.914 6.93917 124.956 7.03815C124.971 7.0728 124.961 7.10002 124.981 7.13219C125.045 7.19406 125.109 7.25592 125.176 7.31531C125.208 7.34996 125.238 7.3846 125.268 7.41925C125.396 7.49596 125.575 7.49349 125.706 7.5702C125.792 7.61969 125.874 7.72363 125.97 7.7657C126.06 7.80529 126.159 7.82756 126.245 7.84736C126.302 7.85231 126.361 7.85478 126.418 7.85973C126.542 7.89685 126.646 7.94387 126.775 7.97357C126.839 7.99089 126.975 7.97851 127.005 7.97357C127.129 7.97357 127.25 7.97357 127.374 7.97357C127.487 7.94882 127.633 7.9216 127.742 7.89438C127.873 7.85973 127.985 7.90427 128.109 7.87211C128.203 7.84736 128.326 7.81519 128.408 7.76817C128.42 7.75085 128.438 7.73105 128.453 7.71125C128.495 7.68403 128.566 7.68403 128.591 7.64196C128.591 7.62712 128.591 7.61227 128.591 7.59495C128.613 7.55288 128.673 7.53061 128.693 7.47864C128.707 7.44647 128.698 7.4143 128.717 7.38708C128.742 7.34748 128.806 7.32521 128.819 7.27077C128.826 7.25097 128.821 7.08517 128.809 7.05053C128.804 7.03568 128.767 7.00846 128.764 6.99114C128.759 6.9268 128.757 6.85998 128.752 6.79564C128.742 6.77089 128.702 6.76099 128.695 6.72635C128.663 6.61499 128.74 6.5655 128.752 6.49373C128.745 6.42939 128.737 6.36258 128.73 6.29824C128.891 6.30814 128.915 6.4195 129.029 6.46156C129.15 6.50858 129.556 6.48631 129.648 6.42692C129.715 6.38485 129.722 6.32298 129.762 6.25122C129.789 6.2042 129.866 6.16461 129.888 6.11264C129.893 6.078 129.895 6.04335 129.898 6.01118C129.908 5.98396 129.947 5.95674 129.955 5.92952C129.96 5.87508 129.962 5.82063 129.967 5.76867C129.972 5.74639 129.994 5.6969 130.002 5.6771C129.997 5.61524 129.994 5.55337 129.989 5.49151C130.002 5.43954 130.031 5.36035 130.046 5.30591C130.068 5.22425 130.044 5.16486 130.068 5.09804C130.106 5.00648 130.185 4.93471 130.217 4.84315C130.257 4.73179 130.264 4.60559 130.286 4.4967C130.286 4.45464 130.286 4.41257 130.286 4.3705C130.318 4.25666 130.383 4.13293 130.412 4.02405C130.452 3.88547 130.403 3.72462 130.445 3.59594C130.462 3.54892 130.521 3.50685 130.536 3.45736C130.536 3.34847 130.536 3.24206 130.536 3.13566C130.571 3.01192 130.717 2.68775 130.697 2.58134C130.672 2.36604 130.826 2.08394 130.722 1.87607Z" fill="white"/>
<path d="M114.039 7.20858C114.073 7.15909 114.068 7.12692 114.13 7.10465C114.145 6.97349 114.081 6.79779 113.992 6.73345C113.96 6.70871 113.925 6.70871 113.9 6.67654C113.858 6.61962 113.828 6.56023 113.752 6.53796C113.715 6.51321 113.67 6.52311 113.613 6.51321C113.376 6.47114 113.237 6.67901 113.064 6.73345C113.044 6.73345 113.027 6.73345 113.007 6.73345C112.98 6.74335 112.935 6.78542 112.905 6.79037C112.871 6.78295 112.836 6.77552 112.801 6.7681C112.762 6.778 112.752 6.83244 112.722 6.84976C112.66 6.85719 112.599 6.86708 112.537 6.87451C112.517 6.88193 112.472 6.91163 112.445 6.91905C112.393 6.93143 112.373 6.89925 112.307 6.91905C112.262 6.93143 112.208 6.9636 112.156 6.97597C112.027 7.00814 111.928 6.98092 111.799 7.01061C111.638 7.04773 111.453 7.05516 111.304 7.04526C111.24 7.04526 111.176 7.04526 111.109 7.04526C111.042 7.02794 110.963 6.98587 110.901 6.96607C110.856 6.95617 110.809 6.94875 110.765 6.94132C110.71 6.91163 110.646 6.85471 110.582 6.82502C110.527 6.80027 110.485 6.80522 110.431 6.778C110.399 6.76315 110.364 6.72108 110.327 6.70871C110.287 6.69386 110.265 6.70871 110.235 6.68644C110.186 6.64684 110.097 6.52311 110.062 6.46867C110.04 6.43402 110.04 6.39443 110.017 6.36473C109.978 6.31772 109.914 6.26575 109.879 6.21378C109.869 6.17666 109.857 6.13707 109.844 6.09995C109.807 6.02571 109.728 5.99354 109.706 5.90445C109.683 5.81784 109.735 5.69411 109.75 5.62729C109.75 5.57533 109.75 5.51841 109.75 5.46644C109.76 5.43922 109.797 5.41695 109.807 5.38478C109.834 5.29817 109.81 5.20166 109.842 5.11999C109.862 5.1002 109.879 5.08287 109.899 5.06308C109.926 5.02348 109.923 4.98389 109.943 4.9344C109.956 4.90965 109.99 4.87995 110 4.85521C110.017 4.74632 110.032 4.63744 110.047 4.53103C110.057 4.49886 110.094 4.47659 110.104 4.44937C110.104 4.4172 110.104 4.3875 110.104 4.35781C110.131 4.33058 110.159 4.30584 110.183 4.27614C110.218 4.22417 110.218 4.17468 110.277 4.14746C110.287 4.14004 110.28 4.14499 110.3 4.13509C110.443 4.40482 110.658 4.45432 110.965 4.55083C111.049 4.57805 111.134 4.52361 111.22 4.55083C111.267 4.57062 111.299 4.60774 111.334 4.63249C111.438 4.70178 111.581 4.77354 111.713 4.80571C111.817 4.80819 111.92 4.81314 112.022 4.81809C112.151 4.84778 112.324 4.84531 112.46 4.80571C112.492 4.79829 112.527 4.75622 112.554 4.7488C112.633 4.75622 112.715 4.76612 112.794 4.77107C112.821 4.76365 112.888 4.74385 112.92 4.73642C112.992 4.7191 113.111 4.7587 113.163 4.7488C113.212 4.7389 113.254 4.68198 113.301 4.66713C113.413 4.63496 113.504 4.69931 113.601 4.66713C113.638 4.65476 113.677 4.61269 113.715 4.59784C113.791 4.56567 113.863 4.57062 113.945 4.54093C113.992 4.52608 114.044 4.48649 114.093 4.47164C114.162 4.45184 114.214 4.46421 114.279 4.43699C114.412 4.38503 114.556 4.30831 114.692 4.26377C114.766 4.2514 114.838 4.2415 114.91 4.22912C114.964 4.20685 115.026 4.14994 115.083 4.12519C115.152 4.09549 115.227 4.11529 115.301 4.09054C115.358 4.07075 115.412 4.0262 115.474 4.00888C115.536 4.00641 115.598 4.00393 115.657 3.99898C115.677 3.98166 115.694 3.95939 115.714 3.93959C115.796 3.88515 115.915 3.88268 115.976 3.81339C115.981 3.81339 115.984 3.81339 115.989 3.81339C116.041 3.7441 116.122 3.52385 116.15 3.43229C116.177 3.33578 116.155 3.26897 116.184 3.17988C116.204 3.12049 116.261 2.97696 116.231 2.87797C116.216 2.8359 116.174 2.81611 116.15 2.78641C116.13 2.76167 116.152 2.72455 116.14 2.69238C116.117 2.64783 116.051 2.65031 116.014 2.62309C115.991 2.60576 115.996 2.57607 115.979 2.5538C115.954 2.52163 115.897 2.51173 115.865 2.48451C115.838 2.45481 115.811 2.42264 115.783 2.39047C115.731 2.3583 115.647 2.36572 115.6 2.33108C115.504 2.29149 115.509 2.16033 115.452 2.07867C115.387 1.98463 115.291 1.96978 115.212 1.90297C115.165 1.86585 115.172 1.81388 115.145 1.75449C115.11 1.69015 115.019 1.64313 114.959 1.60354C114.949 1.4996 114.937 1.42041 114.89 1.33875C114.806 1.31895 114.714 1.27936 114.625 1.25956C114.502 1.22739 114.333 1.314 114.212 1.25956C114.177 1.22492 114.143 1.19027 114.108 1.15563C114.073 1.1482 114.039 1.14078 114.007 1.13336C113.999 1.12098 113.989 1.10861 113.982 1.09871C113.851 1.0319 113.593 1.03932 113.442 0.994777C113.368 0.972505 113.326 1.02942 113.282 1.03932C113.183 1.04427 113.081 1.04922 112.982 1.05169C112.94 1.06159 112.891 1.07396 112.824 1.07396C112.789 1.04922 112.754 1.022 112.72 0.992302C112.688 0.947759 112.693 0.888367 112.66 0.843824C112.606 0.752262 112.477 0.692871 112.326 0.692871C112.255 0.739889 112.143 0.712668 112.062 0.749788C111.94 0.809179 111.861 0.888367 111.762 0.947758C111.723 0.97003 111.683 0.97003 111.648 0.992302C111.596 1.02695 111.559 1.09871 111.51 1.13336C111.473 1.1581 111.421 1.15315 111.383 1.1779C111.349 1.21997 111.314 1.26451 111.28 1.30411C111.2 1.35855 111.116 1.37834 111.04 1.43279C110.97 1.4798 110.931 1.56889 110.866 1.61838C110.802 1.6654 110.74 1.68767 110.671 1.73222C110.562 1.80398 110.451 1.92771 110.371 2.03165C110.357 2.05145 110.334 2.05145 110.314 2.06629C110.262 2.10589 110.173 2.20982 110.129 2.26179C110.047 2.36325 109.973 2.5043 109.921 2.63051C109.911 2.68495 109.899 2.73939 109.886 2.79384C109.864 2.82353 109.815 2.82601 109.795 2.86313C109.73 2.98933 109.703 3.17246 109.634 3.29124C109.587 3.37043 109.518 3.44466 109.473 3.52138C109.451 3.59809 109.426 3.67481 109.404 3.75152C109.391 3.78616 109.349 3.81586 109.337 3.84556C109.29 3.94207 109.287 4.0262 109.243 4.13261C109.228 4.17221 109.188 4.23407 109.176 4.27119C109.137 4.39245 109.161 4.51618 109.117 4.63001C109.097 4.68198 109.045 4.74385 109.025 4.80324C108.993 4.90965 109.018 4.99379 108.991 5.10267C108.981 5.14474 108.941 5.2066 108.934 5.24125C108.941 5.29074 108.948 5.34024 108.956 5.38973C108.934 5.48871 108.921 5.70896 108.956 5.82774C108.973 5.89455 109.028 5.95147 109.06 6.00344C109.082 6.04056 109.075 6.07768 109.094 6.11727C109.114 6.16429 109.161 6.20636 109.188 6.24595C109.228 6.30782 109.218 6.39938 109.258 6.45382C109.273 6.47362 109.295 6.47362 109.315 6.48847C109.362 6.52311 109.51 6.68396 109.545 6.73098C109.584 6.78542 109.587 6.85719 109.624 6.91658C109.671 6.98587 109.76 7.01309 109.81 7.07743C109.839 7.11702 109.854 7.17889 109.889 7.21601C109.921 7.24818 109.97 7.2556 110.003 7.2853C110.027 7.31252 110.05 7.33727 110.072 7.36696C110.119 7.39418 110.156 7.37933 110.211 7.40161C110.258 7.41893 110.292 7.46347 110.349 7.48327C110.396 7.48574 110.441 7.48822 110.488 7.49317C110.515 7.50307 110.559 7.53771 110.589 7.55256C110.636 7.57236 110.683 7.56493 110.725 7.5872C110.76 7.60453 110.79 7.65154 110.829 7.66887C110.861 7.68124 110.896 7.67134 110.923 7.69114C110.96 7.71836 111 7.75795 111.049 7.7728C111.124 7.79755 111.22 7.8025 111.28 7.81982C111.356 7.81982 111.433 7.81982 111.51 7.81982C111.812 7.88911 112.24 7.85694 112.509 7.79755C112.564 7.79755 112.618 7.79755 112.67 7.79755C113.051 7.70104 113.447 7.607 113.764 7.43872C113.828 7.40656 113.997 7.27045 114.039 7.20858ZM110.74 3.18235C110.74 3.12791 110.74 3.07347 110.74 3.01903C110.772 2.98686 110.802 2.95716 110.832 2.92499C110.866 2.85323 110.809 2.81116 110.844 2.75177C110.864 2.72455 111.027 2.53647 111.052 2.52163C111.087 2.49688 111.138 2.5043 111.166 2.47461C111.242 2.38552 111.27 2.25437 111.371 2.19745C111.418 2.19003 111.463 2.1826 111.507 2.17518C111.559 2.15538 111.653 2.11826 111.703 2.08362C111.77 2.03412 111.792 1.93761 111.851 1.88564C111.893 1.851 111.948 1.8312 111.99 1.79408C112.057 1.73469 112.099 1.64808 112.163 1.58869C112.21 1.5392 112.292 1.53425 112.346 1.49465C112.438 1.49465 112.529 1.49465 112.623 1.49465C112.811 1.54167 112.975 1.65303 113.15 1.7149C113.192 1.71737 113.235 1.72479 113.277 1.72727C113.314 1.73964 113.353 1.78913 113.39 1.80646C113.489 1.85595 113.588 1.87575 113.677 1.93266C113.739 1.97226 113.905 2.15785 113.952 2.2222C113.999 2.28159 114.081 2.28406 114.135 2.33603C114.192 2.388 114.264 2.63546 114.205 2.7196C114.212 2.74682 114.217 2.74434 114.227 2.76414C114.271 2.76661 114.338 2.77156 114.365 2.75424C114.435 2.76167 114.422 2.78641 114.457 2.82353C114.455 2.93242 114.437 3.06357 114.388 3.13534C114.358 3.19225 114.244 3.2368 114.17 3.24917C114.143 3.24422 114.118 3.24174 114.088 3.23927C113.915 3.27639 113.742 3.37043 113.583 3.42239C113.541 3.42239 113.499 3.42239 113.457 3.42239C113.39 3.43972 113.353 3.50653 113.286 3.52633C113.215 3.52385 113.148 3.5189 113.079 3.51395C112.893 3.57335 112.648 3.65006 112.448 3.69955C112.297 3.73667 112.151 3.65996 112 3.69955C111.814 3.7441 111.586 3.70698 111.379 3.72182C111.267 3.72925 111.176 3.78616 111.057 3.75399C110.955 3.73172 110.819 3.67728 110.71 3.65006C110.631 3.63026 110.55 3.65501 110.493 3.61789C110.485 3.61789 110.478 3.61789 110.47 3.61789C110.488 3.42239 110.688 3.33826 110.74 3.18235Z" fill="white"/>
<path d="M117.035 6.79295C117.08 6.84492 117.063 6.91668 117.129 6.96865C117.164 6.9934 117.206 7.0033 117.233 7.03547C117.285 7.10723 117.32 7.17652 117.372 7.24334C117.414 7.30273 117.493 7.34232 117.543 7.39181C117.577 7.42893 117.612 7.46853 117.647 7.50565C117.76 7.58978 117.889 7.61701 118.028 7.67887C118.04 7.68382 118.067 7.71847 118.085 7.72589C118.156 7.74816 118.255 7.73579 118.315 7.72589C118.367 7.71847 118.555 7.76053 118.604 7.77291C118.669 7.77291 118.733 7.77291 118.8 7.77291C118.943 7.8125 119.171 7.8125 119.329 7.8422C119.379 7.83477 119.428 7.82735 119.48 7.81993C119.587 7.8323 119.752 7.86199 119.884 7.8323C119.975 7.80508 120.067 7.77786 120.158 7.75064C120.23 7.74816 120.304 7.74569 120.376 7.74074C120.455 7.72094 120.529 7.68135 120.606 7.66155C120.671 7.65413 120.737 7.6467 120.802 7.63928C120.918 7.58236 121.019 7.48338 121.123 7.40914C121.136 7.39924 121.141 7.37202 121.158 7.36212C121.188 7.35964 121.22 7.35469 121.25 7.35222C121.311 7.32995 121.388 7.30273 121.457 7.27056C121.529 7.23839 121.581 7.15672 121.653 7.13198C121.675 7.13198 121.7 7.13198 121.722 7.13198C121.749 7.09733 121.777 7.06269 121.804 7.02804C121.836 7.01567 121.866 7.00577 121.895 6.99092C121.96 6.94885 122.009 6.86966 122.056 6.8078C122.098 6.75088 122.16 6.72366 122.217 6.68159C122.269 6.642 122.282 6.58261 122.321 6.53064C122.358 6.48115 122.445 6.47867 122.504 6.44898C122.504 6.4465 122.504 6.44155 122.504 6.43908C122.559 6.40938 122.556 6.36731 122.596 6.33514C122.638 6.30297 122.68 6.30545 122.712 6.26585C122.811 6.1347 122.843 5.95157 122.942 5.81547C122.982 5.76103 123.068 5.72886 123.103 5.66452C123.13 5.61255 123.125 5.56553 123.148 5.51604C123.185 5.43437 123.266 5.35024 123.284 5.25125C123.296 5.18444 123.264 4.96914 123.261 4.89243C123.259 4.86026 123.299 4.79097 123.309 4.75385C123.351 4.5732 123.222 4.41482 123.135 4.34801C123.14 4.25397 123.212 4.21933 123.192 4.11787C123.165 3.97186 123.125 3.85308 123.054 3.74914C123.026 3.72192 123.002 3.6947 122.974 3.66748C122.974 3.61799 122.974 3.5685 122.974 3.51653C122.957 3.46704 122.908 3.42992 122.893 3.36558C122.955 3.33341 123.086 3.19235 123.123 3.13543C123.158 3.07852 123.16 3.00675 123.205 2.96221C123.2 2.86817 123.041 2.62071 122.974 2.59101C122.868 2.54895 122.722 2.57864 122.608 2.54647C122.475 2.50688 122.155 2.28911 121.962 2.33613C121.92 2.3485 121.871 2.39057 121.836 2.40789C121.752 2.44501 121.732 2.45986 121.648 2.49203C121.613 2.50193 121.584 2.55389 121.549 2.56379C121.5 2.57122 121.408 2.57864 121.358 2.58606C121.334 2.59596 121.255 2.59596 121.227 2.60339C121.18 2.61576 120.826 2.50935 120.789 2.48708C120.794 2.45738 120.797 2.44749 120.802 2.42769C120.958 2.42521 121.116 2.42026 121.272 2.41531C121.324 2.42769 121.423 2.43759 121.48 2.41531C121.554 2.38809 121.601 2.30396 121.675 2.27921C121.69 2.20745 121.653 2.12826 121.675 2.04907C121.698 1.97483 121.804 1.92039 121.779 1.80655C121.725 1.57641 121.512 1.52692 121.284 1.47248C121.235 1.47248 121.185 1.47248 121.136 1.47248C121.091 1.45515 121.054 1.42051 120.985 1.41309C120.873 1.48733 120.609 1.44773 120.468 1.49475C120.324 1.53929 120.138 1.60363 119.995 1.65808C119.931 1.67292 119.866 1.68777 119.799 1.70262C119.673 1.75459 119.53 1.85357 119.396 1.89812C119.3 1.93029 119.141 1.95008 119.04 2.01442C118.805 2.16043 118.555 2.29653 118.327 2.45243C118.278 2.4846 118.278 2.56874 118.235 2.60339C118.193 2.63308 118.139 2.63061 118.097 2.6603C118.097 2.66773 118.097 2.67515 118.097 2.68505C118.013 2.74939 117.926 2.80631 117.854 2.88055C117.844 2.91272 117.832 2.94241 117.82 2.97458C117.785 3.01665 117.689 3.00923 117.659 3.05377C117.572 3.18493 117.513 3.32351 117.429 3.45714C117.362 3.56602 117.256 3.66253 117.186 3.76894C117.092 3.91247 117.05 4.0758 116.978 4.24407C116.959 4.29357 116.904 4.35543 116.887 4.40492C116.889 4.45194 116.892 4.49896 116.897 4.5435C116.877 4.593 116.813 4.65734 116.793 4.70436C116.788 4.77117 116.785 4.83799 116.783 4.90233C116.778 4.9147 116.751 4.95429 116.748 4.97162C116.748 5.02853 116.748 5.08792 116.748 5.14484C116.605 5.6175 116.664 6.32277 116.921 6.70386C116.946 6.74098 117.003 6.75831 117.035 6.79295ZM117.552 5.67441C117.57 5.61007 117.614 5.52841 117.634 5.45417C117.669 5.32054 117.627 5.16959 117.681 5.0508C117.716 4.97162 117.738 4.88995 117.76 4.80829C117.768 4.75385 117.778 4.69941 117.783 4.64744C117.795 4.64002 117.807 4.63259 117.817 4.62517C117.849 4.57567 117.864 4.52123 117.899 4.47421C117.934 4.44452 117.968 4.41482 118 4.38018C118.047 4.31336 118.052 4.23912 118.092 4.16241C118.122 4.10549 118.184 4.09312 118.218 4.0461C118.29 3.95207 118.32 3.83328 118.391 3.7343C118.438 3.66996 118.523 3.63284 118.587 3.58334C118.644 3.54128 118.758 3.36558 118.805 3.34083C118.834 3.33588 118.867 3.33093 118.896 3.32846C119.003 3.28639 119.099 3.1973 119.206 3.15771C119.238 3.15276 119.267 3.15028 119.297 3.14533C119.317 3.12801 119.337 3.10821 119.357 3.08842C119.436 3.03645 119.515 2.98696 119.609 2.94984C119.663 2.92756 119.718 2.94736 119.78 2.92509C119.799 2.91767 119.822 2.88797 119.839 2.87807C119.968 2.81126 120.101 2.75681 120.218 2.68258C120.28 2.64298 120.361 2.63803 120.413 2.59101C120.435 2.59596 120.435 2.59596 120.448 2.60339C120.517 2.63803 120.673 2.99685 120.735 3.08842C120.792 3.17008 120.883 3.22452 120.965 3.28639C121.024 3.33093 121.076 3.4027 121.138 3.44724C121.185 3.47941 121.212 3.47693 121.242 3.52643C121.321 3.52395 121.393 3.47693 121.438 3.43487C121.455 3.43487 121.467 3.43487 121.485 3.43487C121.46 3.57839 121.571 3.65511 121.542 3.76894C121.532 3.81101 121.497 3.8605 121.485 3.90752C121.45 4.04858 121.504 4.18221 121.462 4.31089C121.448 4.35791 121.408 4.40245 121.393 4.46184C121.403 4.54103 121.41 4.62517 121.415 4.70436C121.391 4.83304 121.376 4.95182 121.349 5.07555C121.349 5.12999 121.349 5.18444 121.349 5.2364C121.334 5.30074 121.326 5.39478 121.302 5.46654C121.289 5.50119 121.25 5.53088 121.232 5.55811C121.203 5.62987 121.178 5.70411 121.151 5.77587C121.136 5.79567 121.096 5.80062 121.081 5.82289C121.057 5.86001 121.044 5.90456 121.015 5.9392C120.995 5.95157 120.977 5.96395 120.958 5.97385C120.918 6.02086 120.901 6.07778 120.854 6.11243C120.834 6.12975 120.804 6.12975 120.784 6.14707C120.774 6.15697 120.777 6.18419 120.762 6.19409C120.718 6.22626 120.651 6.21636 120.614 6.251C120.599 6.26585 120.599 6.29802 120.579 6.3104C120.507 6.35247 120.421 6.34999 120.349 6.38958C120.198 6.47372 120.03 6.58756 119.866 6.65685C119.797 6.66674 119.728 6.67912 119.661 6.69149C119.614 6.71129 119.54 6.75336 119.5 6.77315C119.431 6.80532 119.366 6.788 119.305 6.8177C119.267 6.83997 119.233 6.87956 119.201 6.88699C119.079 6.88451 118.956 6.87956 118.834 6.87709C118.498 6.87709 118.171 6.84987 117.936 6.71376C117.889 6.68654 117.644 6.34752 117.627 6.28812C117.597 6.18914 117.659 6.12232 117.627 6.02334C117.597 5.94662 117.52 5.7932 117.552 5.67441Z" fill="white"/>
<path d="M123.941 25.0783C123.981 24.9199 124.053 24.7788 124.092 24.6056C124.117 24.4893 124.021 24.4002 124.058 24.2468C124.082 24.1404 124.159 24.1107 124.196 24.0265C124.204 23.9845 124.211 23.9424 124.219 23.9003C124.238 23.8533 124.28 23.7964 124.298 23.7494C124.323 23.685 124.33 23.6058 124.345 23.5415C124.34 23.4994 124.337 23.4574 124.332 23.4153C124.34 23.3782 124.37 23.3237 124.377 23.2891C124.394 23.2223 124.345 23.1876 124.332 23.1505C124.308 23.0639 124.345 22.8041 124.357 22.7224C124.345 22.6259 124.332 22.5319 124.32 22.4329C124.36 22.1978 124.372 21.9454 124.446 21.7523C124.491 21.636 124.382 21.5791 124.412 21.4628C124.444 21.3564 124.528 21.2376 124.563 21.1411C124.577 21.0298 124.595 20.9184 124.61 20.807C124.622 20.7724 124.666 20.7378 124.679 20.7031C124.699 20.6487 124.684 20.6165 124.714 20.5769C124.808 20.4433 125.238 20.3369 125.448 20.2997C125.488 20.2923 125.518 20.3171 125.54 20.322C125.609 20.3393 125.805 20.3443 125.886 20.322C125.929 20.3096 125.966 20.2651 126 20.2527C126.037 20.2478 126.077 20.2453 126.114 20.2403C126.23 20.1884 126.292 20.0547 126.391 19.9879C126.389 19.644 126.084 19.394 125.839 19.295C125.8 19.2926 125.763 19.2876 125.726 19.2827C125.587 19.2455 125.283 19.1614 125.243 19.0402C125.223 19.003 125.325 18.7061 125.347 18.6492C125.394 18.5205 125.441 18.2854 125.392 18.1171C125.382 18.08 125.347 18.0305 125.335 17.9909C125.302 17.8746 125.305 17.7632 125.231 17.6915C125.213 17.6865 125.194 17.6841 125.174 17.6791C125.06 17.6123 124.973 17.4861 124.827 17.449C124.694 17.4143 124.523 17.543 124.414 17.449C124.28 17.449 124.201 17.5281 124.172 17.6346C124.115 17.7286 124.233 17.9563 124.184 18.0948C124.164 18.1443 124.129 18.2186 124.115 18.2804C124.115 18.3423 124.115 18.4042 124.115 18.466C124.095 18.5279 124.045 18.6071 124.023 18.6714C124.016 18.7259 124.006 18.7803 123.998 18.8323C123.979 18.8892 123.936 18.9634 123.919 19.0154C123.914 19.0476 123.912 19.0773 123.907 19.1094C123.88 19.1688 123.813 19.2134 123.781 19.2827C123.632 19.3173 123.348 19.394 123.172 19.3396C123.107 19.3198 123.043 19.2678 122.989 19.2455C122.949 19.2431 122.912 19.2406 122.872 19.2356C122.796 19.2084 122.721 19.1367 122.642 19.1094C122.563 19.102 122.481 19.0946 122.4 19.0847C122.321 19.0649 122.175 19.0105 122.09 19.0377C122.046 19.055 122.014 19.1045 121.977 19.1317C121.986 19.2257 122.029 19.2901 122.046 19.3742C122.041 19.4509 122.038 19.5277 122.033 19.6044C122.056 19.6885 122.105 19.7083 122.128 19.7553C122.155 19.8147 122.14 19.8642 122.162 19.9285C122.187 20.0028 122.246 20.1339 122.288 20.2057C122.311 20.2428 122.355 20.2502 122.392 20.275C122.442 20.3121 122.479 20.3789 122.531 20.4136C122.603 20.4655 122.823 20.5571 122.909 20.5868C123.098 20.6462 123.357 20.6041 123.531 20.6784C123.573 20.9011 123.506 21.1461 123.461 21.3366C123.466 21.401 123.469 21.4653 123.474 21.5321C123.446 21.6459 123.412 21.7895 123.38 21.9033C123.38 21.9775 123.38 22.0493 123.38 22.1235C123.362 22.1928 123.33 22.3487 123.345 22.423C123.355 22.4576 123.382 22.517 123.37 22.5739C123.365 22.5888 123.34 22.6284 123.335 22.6432C123.33 22.6977 123.328 22.7496 123.325 22.8065C123.305 22.861 123.253 22.8956 123.234 22.9451C123.199 23.0293 123.216 23.1109 123.187 23.1975C123.179 23.2198 123.15 23.2644 123.142 23.2916C123.135 23.3683 123.127 23.445 123.12 23.5217C123.11 23.5613 123.075 23.5984 123.063 23.6355C123.055 23.7024 123.046 23.7667 123.041 23.831C123.018 23.8583 122.994 23.8855 122.971 23.9102C122.9 23.9102 122.862 23.9078 122.811 23.9102C122.815 24.029 122.855 24.1255 122.88 24.2245C122.88 24.2814 122.88 24.3383 122.88 24.3953C122.885 24.4151 122.91 24.467 122.914 24.4893C122.942 24.6056 122.848 24.7566 122.892 24.9149C122.942 25.0956 122.979 25.3034 123.063 25.4717H123.922C123.929 25.4445 123.934 25.4222 123.939 25.4C123.934 25.2936 123.939 25.1871 123.941 25.0783Z" fill="white"/>
<path d="M106.692 25.2168C106.715 25.1847 106.712 25.1426 106.737 25.1129C106.769 25.0758 106.811 25.0634 106.829 25.009C106.866 24.9521 106.829 24.8358 106.819 24.7887C106.801 24.7293 106.814 24.6724 106.784 24.6254C106.734 24.5536 106.628 24.5264 106.554 24.4769C106.507 24.4448 106.472 24.3829 106.428 24.3483C106.386 24.3334 106.343 24.3186 106.301 24.3012C106.22 24.2369 106.23 24.133 106.094 24.1156C106.074 23.935 105.915 23.8038 105.75 23.7692C105.646 23.8533 105.507 23.8781 105.391 23.9523C105.331 23.9919 105.297 24.0711 105.242 24.1132C105.215 24.133 105.188 24.1379 105.161 24.1602C105.104 24.2047 105.109 24.2814 105.069 24.3458C105.054 24.3705 104.898 24.4745 104.874 24.4868C104.802 24.4893 104.73 24.4943 104.656 24.4967C104.381 24.5759 103.995 24.5635 103.701 24.4967C103.597 24.472 103.527 24.4943 103.448 24.4621C103.381 24.4324 103.302 24.3631 103.253 24.3111C103.245 24.2963 103.238 24.2814 103.23 24.2666C103.216 24.2666 103.208 24.2666 103.196 24.2666C103.136 24.2394 103.057 24.1973 103.013 24.1528C102.98 24.1206 102.971 24.076 102.943 24.0389C102.914 23.9969 102.857 23.9771 102.817 23.9449C102.785 23.9201 102.778 23.8706 102.75 23.841C102.731 23.8236 102.701 23.8236 102.681 23.8063C102.632 23.7667 102.594 23.6974 102.542 23.6578C102.53 23.6529 102.52 23.6504 102.508 23.6455C102.481 23.5737 102.456 23.4995 102.429 23.4277C102.406 23.3906 102.352 23.3609 102.335 23.3238C102.27 23.1703 102.364 22.9328 102.322 22.7595C102.312 22.715 102.27 22.5863 102.278 22.5517C102.285 22.5046 102.305 22.3958 102.288 22.3314C102.241 22.1557 102.213 22.0914 102.263 21.9058C102.268 21.8736 102.273 21.8439 102.275 21.8142C102.374 21.6113 102.525 21.4876 102.585 21.2352C102.614 21.1015 102.518 21.0545 102.493 20.9827C102.471 20.9209 102.481 20.7947 102.468 20.7378C102.443 20.6215 102.528 20.614 102.572 20.5645C102.619 20.515 102.612 20.4235 102.641 20.3567C102.671 20.2923 102.733 20.2404 102.768 20.1834C102.785 20.1265 102.8 20.0671 102.815 20.0077C102.837 19.9583 102.894 19.936 102.919 19.8939C102.951 19.8395 102.938 19.7677 102.963 19.7083C103.04 19.5252 103.196 19.347 103.329 19.2109C103.366 19.1713 103.409 19.0971 103.456 19.0748C103.572 19.0129 103.738 19.0451 103.869 18.9931C103.921 18.9733 103.97 18.8917 104.017 18.8669C104.082 18.8323 104.131 18.8323 104.191 18.7976C104.272 18.7482 104.371 18.6442 104.465 18.612C104.656 18.612 104.846 18.612 105.039 18.612C105.064 18.6195 105.119 18.6393 105.143 18.6467C105.195 18.6591 105.235 18.6442 105.269 18.669C105.411 18.7383 105.564 19.1738 105.683 19.3148C105.799 19.4559 106.197 19.4485 106.418 19.4312C106.462 19.446 106.509 19.4633 106.556 19.4782C106.811 19.54 107.138 19.3841 107.222 19.2703C107.247 19.2381 107.237 19.1886 107.254 19.1441C107.286 19.0723 107.366 18.9313 107.348 18.8224C107.311 18.6046 107.036 18.3794 106.878 18.2681C106.829 18.2334 106.806 18.1691 106.752 18.1419C106.655 18.0899 106.588 18.0924 106.465 18.0602C106.425 18.0503 106.381 18.0157 106.348 18.0033C106.306 17.9835 105.972 17.9761 105.945 17.9909C105.883 17.9909 105.814 17.9909 105.752 17.9909C105.732 17.9686 105.712 17.9464 105.695 17.9216C105.648 17.8895 105.586 17.8449 105.534 17.8276C105.359 17.7682 105.101 17.7583 104.881 17.7583C104.794 17.7583 104.705 17.7583 104.616 17.7583C104.228 17.8697 103.832 17.9785 103.525 18.174C103.329 18.2978 103.173 18.4908 103.008 18.6467C102.983 18.669 102.941 18.669 102.916 18.6912C102.864 18.7333 102.839 18.7853 102.8 18.8397C102.75 18.8867 102.701 18.9338 102.651 18.9783C102.604 19.0426 102.597 19.1342 102.547 19.1985C102.495 19.2654 102.414 19.3173 102.364 19.3841C102.337 19.4213 102.332 19.4732 102.307 19.5103C102.28 19.5475 102.231 19.5499 102.191 19.5796L102.008 19.8098C101.921 19.9731 101.899 20.1636 101.812 20.3294C101.788 20.3567 101.76 20.3839 101.733 20.4111C101.704 20.4631 101.704 20.515 101.676 20.572C101.664 20.6017 101.622 20.6289 101.607 20.6536C101.562 20.7328 101.57 20.8219 101.54 20.9184C101.52 20.9827 101.473 21.0421 101.446 21.0916C101.402 21.1708 101.421 21.2748 101.389 21.3688C101.372 21.4257 101.327 21.4802 101.31 21.5296C101.27 21.6336 101.283 21.7573 101.241 21.8637C101.216 21.9256 101.191 21.9998 101.164 22.0741V23.8657C101.174 23.8929 101.181 23.9201 101.196 23.9424C101.223 23.9919 101.283 24.034 101.31 24.081C101.332 24.1231 101.322 24.175 101.357 24.2072C101.402 24.2517 101.466 24.2715 101.503 24.321C101.555 24.3878 101.59 24.4695 101.654 24.5165C101.708 24.5586 101.76 24.5833 101.803 24.6328C101.822 24.6526 101.825 24.6848 101.85 24.7021C101.884 24.7244 101.919 24.7269 101.941 24.759C102.015 24.858 102.097 24.9743 102.194 25.0486C102.241 25.0832 102.3 25.0931 102.344 25.1302C102.404 25.1748 102.414 25.2713 102.483 25.3134C102.52 25.3257 102.56 25.3356 102.597 25.348C102.671 25.3851 102.743 25.4247 102.822 25.4643H106.299C106.299 25.4643 106.299 25.4643 106.299 25.4618C106.413 25.395 106.618 25.3183 106.692 25.2168Z" fill="white"/>
<path d="M116.393 25.2041C116.393 25.1695 116.393 25.1373 116.393 25.1002C116.41 25.0358 116.455 24.9294 116.428 24.8354C116.408 24.7611 116.336 24.7315 116.301 24.6721C116.232 24.5558 116.215 24.4419 116.165 24.3033C116.148 24.2563 116.096 24.2019 116.086 24.1524C116.071 24.1004 116.173 23.796 116.188 23.7243C116.215 23.608 116.207 23.316 116.188 23.2046C116.21 23.0042 116.235 22.8037 116.257 22.6033C116.277 22.534 116.339 22.5167 116.373 22.4647C116.423 22.388 116.423 22.2791 116.475 22.2123C116.507 22.1677 116.569 22.1504 116.591 22.096C116.631 21.9995 116.648 21.8906 116.67 21.7965C116.67 21.7347 116.67 21.6728 116.67 21.6109C116.695 21.5194 116.757 21.4154 116.786 21.3214C116.794 21.267 116.801 21.2125 116.809 21.1581C116.848 21.0789 116.967 21.0541 117.014 20.9972C117.125 20.8661 117.155 20.6805 117.257 20.5369C117.314 20.4503 117.447 20.4479 117.531 20.386C117.615 20.3241 117.645 20.1757 117.737 20.1212C117.796 20.0866 117.856 20.089 117.91 20.0519C117.952 20.0222 117.972 19.9653 118.002 19.9232C118.068 19.8391 118.247 19.7277 118.358 19.6931C118.449 19.6634 118.59 19.7055 118.667 19.7154C118.732 19.7228 118.84 19.6857 118.91 19.7154C118.991 19.75 119.051 19.8441 119.127 19.8886C119.308 19.9851 119.447 20.0395 119.531 20.235C119.538 20.2969 119.543 20.3588 119.553 20.4206C119.605 20.5765 119.605 20.6483 119.563 20.824C119.533 20.9527 119.588 21.1036 119.553 21.2175C119.506 21.3585 119.486 21.5639 119.449 21.7124C119.449 21.752 119.449 21.7891 119.449 21.8287C119.417 21.945 119.345 22.049 119.311 22.1752C119.316 22.2296 119.318 22.284 119.323 22.3385C119.318 22.3583 119.283 22.4003 119.276 22.4201C119.266 22.4919 119.251 22.5661 119.241 22.6379C119.207 22.7517 119.179 22.8829 119.135 23.0091C119.108 23.0932 119.056 23.1799 119.043 23.2863C118.991 23.311 118.86 23.3209 118.813 23.3556C118.739 23.405 118.764 23.5288 118.662 23.561C118.66 23.7663 118.694 23.6674 118.788 23.7465C118.831 23.7812 118.85 23.8777 118.915 23.9198C118.912 24.088 118.952 24.1969 118.996 24.3108C118.959 24.4741 119.137 24.8973 119.226 24.9715C119.283 24.9888 119.34 25.0086 119.397 25.0284C119.57 25.1274 119.58 25.1769 119.801 25.073C119.818 25.073 119.833 25.073 119.848 25.073C119.865 25.0655 119.927 25.021 119.939 25.0037C120.078 24.8304 119.932 24.5558 120.031 24.39C120.105 24.2662 120.234 24.14 120.283 23.999C120.288 23.9594 120.291 23.9198 120.296 23.8827C120.32 23.796 120.362 23.7119 120.387 23.6302C120.392 23.5832 120.394 23.5387 120.397 23.4917C120.429 23.3853 120.511 23.2912 120.548 23.1898C120.555 23.118 120.563 23.0438 120.57 22.972C120.575 22.9596 120.6 22.9274 120.605 22.9151C120.607 22.8285 120.612 22.7443 120.615 22.6602C120.635 22.5934 120.667 22.5018 120.684 22.43C120.679 22.3187 120.677 22.2073 120.674 22.096C120.726 21.9128 120.865 21.8015 120.917 21.6233C120.909 21.4872 120.899 21.3536 120.892 21.2199C120.939 20.9923 120.917 20.6706 120.86 20.4825C120.857 20.4157 120.852 20.3514 120.847 20.2845C120.823 20.193 120.563 19.8243 120.493 19.7896C120.407 19.7475 120.31 19.7624 120.229 19.7079C120.157 19.6609 120.1 19.557 120.021 19.5124C119.942 19.4679 119.862 19.4729 119.791 19.4209C119.709 19.359 119.674 19.2699 119.561 19.2353C119.293 19.1536 118.915 19.171 118.642 19.2353C118.573 19.2402 118.504 19.2427 118.437 19.2452C118.331 19.2749 118.195 19.3293 118.091 19.3615C118.046 19.3689 117.999 19.3763 117.952 19.3838C117.858 19.4283 117.757 19.4976 117.665 19.5446C117.536 19.6114 117.41 19.6436 117.296 19.7203C117.239 19.7574 117.182 19.8218 117.125 19.8589C117.078 19.8713 117.031 19.8886 116.987 19.9034C116.905 19.8985 116.895 19.8688 116.848 19.8342C116.826 19.7376 116.838 19.5595 116.801 19.463C116.777 19.4011 116.717 19.3541 116.697 19.2774C116.697 19.2353 116.697 19.1932 116.697 19.1512C116.69 19.1264 116.65 19.0918 116.64 19.072C116.633 19.0249 116.626 18.9779 116.618 18.9334C116.537 18.7379 116.371 18.6241 116.101 18.6216C116.059 18.6562 116.027 18.6661 116.009 18.7255C115.96 18.8072 116.012 19.0324 115.987 19.1413C115.972 19.2031 115.945 19.2873 115.93 19.3392C115.893 19.4605 115.92 19.5694 115.873 19.6733C115.839 19.75 115.779 19.8539 115.747 19.9381C115.7 20.0668 115.678 20.1954 115.643 20.3291C115.641 20.3711 115.636 20.4132 115.633 20.4553C115.626 20.4726 115.596 20.4974 115.586 20.5147C115.557 20.5716 115.581 20.6359 115.564 20.7102C115.547 20.7819 115.502 20.8611 115.485 20.9304C115.485 20.9774 115.485 21.022 115.485 21.069C115.465 21.1457 115.433 21.2348 115.416 21.2991C115.418 21.3758 115.423 21.4526 115.428 21.5293C115.393 21.7124 115.376 21.9054 115.334 22.0836C115.309 22.1875 115.339 22.2667 115.312 22.3608C115.274 22.487 115.195 22.4944 115.141 22.581C115.106 22.6305 115.086 22.7122 115.069 22.7765C115.069 22.8582 115.069 22.9373 115.069 23.019C115.039 23.1922 115.067 23.4669 115.104 23.6302C115.124 23.7193 115.084 23.7589 115.104 23.8505C115.111 23.8926 115.146 23.9544 115.141 24.0014C115.119 24.1004 115.059 24.187 115.034 24.2786C115.01 24.3726 115.057 24.4543 115.069 24.5087C115.069 24.5929 115.069 24.677 115.069 24.7636C115.074 24.7785 115.101 24.8181 115.104 24.8354C115.111 24.9344 115.119 25.0358 115.126 25.1348C115.163 25.2363 115.319 25.3724 115.467 25.4714H116.19C116.279 25.4095 116.363 25.2957 116.393 25.2041Z" fill="white"/>
<path d="M111.394 25.0089C111.308 24.9297 111.179 24.9198 111.063 24.8703C111.001 24.8456 110.971 24.7886 110.924 24.7565C110.889 24.7342 110.85 24.7367 110.82 24.7095C110.694 24.5981 110.79 24.4645 110.498 24.4669C110.394 24.5758 110.281 24.5684 110.14 24.6402C110.125 24.66 110.112 24.6798 110.095 24.6996C110.033 24.7391 109.857 24.7688 109.773 24.7342C109.669 24.6921 109.563 24.603 109.474 24.5362C109.419 24.4843 109.367 24.4298 109.313 24.3754C109.224 24.3432 109.137 24.3135 109.048 24.2813C108.999 24.2442 108.967 24.1304 108.91 24.0858C108.905 23.9844 108.885 23.8656 108.92 23.774C108.939 23.7245 109.004 23.6949 108.976 23.5884C108.937 23.435 108.878 23.2667 108.838 23.1257C108.791 22.9574 108.91 22.8188 108.885 22.6877C108.845 22.4922 108.83 22.3833 108.875 22.1804C108.895 22.0814 108.855 21.9676 108.885 21.8809C108.897 21.8438 108.947 21.6681 108.967 21.6384C108.991 21.6038 109.036 21.5964 109.071 21.5691C109.085 21.5543 109.08 21.5295 109.093 21.5122C109.182 21.386 109.318 21.3242 109.36 21.141C109.457 21.1534 109.462 21.2771 109.509 21.339C109.518 21.3415 109.531 21.3464 109.543 21.3489C109.58 21.3885 109.573 21.4281 109.6 21.4751C109.637 21.5419 109.731 21.5815 109.796 21.6261C109.833 21.6533 109.867 21.7127 109.912 21.73C109.969 21.7349 110.026 21.7374 110.085 21.7424C110.167 21.7646 110.261 21.8216 110.338 21.8463C110.38 21.8611 110.733 21.9007 110.773 21.8933C110.815 21.8834 110.912 21.8636 110.956 21.8686C111.231 21.9007 111.627 21.8587 111.889 21.7894C111.973 21.7671 112.057 21.8092 112.119 21.824C112.174 21.8364 112.255 21.8092 112.29 21.8141C112.384 21.824 112.488 21.8537 112.577 21.8587C112.629 21.8438 112.676 21.8265 112.728 21.8141C112.8 21.7968 112.961 21.7721 113.037 21.7894C113.055 21.7919 113.099 21.8092 113.131 21.8018C113.206 21.782 113.263 21.7226 113.337 21.6978C113.436 21.6607 113.547 21.6755 113.624 21.6261C113.676 21.5939 113.757 21.4949 113.809 21.4751C113.881 21.4504 113.951 21.4751 114.015 21.4528C114.183 21.3984 114.389 21.1806 114.28 20.9455C114.228 20.8342 114.111 20.8416 114.005 20.7847C113.938 20.75 113.899 20.6931 113.809 20.6684C113.693 20.6362 113.577 20.6436 113.51 20.5644C113.498 20.5496 113.5 20.5323 113.522 20.5075C113.555 20.4234 113.646 20.4407 113.718 20.3937C113.76 20.364 113.785 20.3021 113.822 20.2675C113.817 20.218 113.814 20.1685 113.812 20.119C113.743 20.0547 113.654 20.0076 113.569 19.9582C113.517 19.822 113.636 19.6389 113.592 19.5672C113.572 19.5127 113.47 19.441 113.418 19.4137C113.379 19.2257 113.391 18.8817 113.305 18.7332C113.258 18.659 113.047 18.6095 112.958 18.5847C112.924 18.5847 112.889 18.5847 112.854 18.5847C112.676 18.513 112.5 18.3967 112.325 18.3298C112.179 18.2754 111.996 18.3373 111.82 18.2952C111.751 18.2779 111.661 18.2705 111.565 18.2729C111.357 18.4189 111.152 18.2284 110.897 18.2828C110.639 18.3397 110.521 18.3397 110.335 18.4684C110.261 18.5204 110.204 18.6689 110.127 18.7332C110.031 18.8149 109.907 18.8545 109.818 18.9436C109.766 18.993 109.734 19.045 109.692 19.1044C109.637 19.1786 109.538 19.2182 109.484 19.29C109.39 19.4137 109.301 19.5375 109.209 19.6612C109.194 19.681 109.172 19.681 109.15 19.6958C109.137 19.7057 108.989 19.8641 108.979 19.879C108.922 19.9606 108.892 20.0547 108.828 20.1339C108.771 20.2031 108.692 20.2749 108.645 20.3541C108.615 20.3962 108.615 20.4531 108.588 20.4927C108.576 20.505 108.538 20.5125 108.531 20.5273C108.484 20.5892 108.482 20.6758 108.449 20.7451C108.427 20.7971 108.368 20.8441 108.345 20.896C108.298 21.0099 108.298 21.1237 108.242 21.2202C108.222 21.2499 108.175 21.2895 108.16 21.3217C108.118 21.4132 108.128 21.5741 108.103 21.6805C108.063 21.8339 108.011 21.9923 107.977 22.1309C107.977 22.168 107.977 22.2076 107.977 22.2447C107.945 22.3635 107.952 22.5342 107.92 22.6704C107.905 22.7248 107.875 22.7842 107.86 22.8312C107.853 22.997 107.848 23.1628 107.838 23.3286C107.828 23.3657 107.791 23.3979 107.781 23.4325C107.786 23.4697 107.789 23.5093 107.791 23.5488C107.799 23.7047 107.764 23.8483 107.804 23.9893C107.828 24.0735 107.9 24.1452 107.93 24.2195C107.95 24.264 107.932 24.3061 107.954 24.3457C107.989 24.4001 108.058 24.4397 108.091 24.4966C108.113 24.556 108.138 24.6179 108.16 24.6798C108.214 24.7688 108.318 24.8827 108.402 24.9445C108.422 24.9594 108.444 24.9594 108.459 24.9792C108.509 25.046 108.526 25.1227 108.588 25.1747C108.633 25.2143 108.709 25.2069 108.759 25.244C108.776 25.2563 108.788 25.2959 108.803 25.3133C108.845 25.3603 108.939 25.4246 108.999 25.4518C109.026 25.4568 109.053 25.4617 109.08 25.4642C109.088 25.4642 109.095 25.4716 109.105 25.4766H111.407C111.478 25.4048 111.523 25.3133 111.528 25.197C111.483 25.1475 111.436 25.0485 111.394 25.0089ZM109.36 20.6461C109.382 20.5818 109.667 20.2526 109.726 20.2056C109.763 20.1784 109.815 20.1611 109.843 20.1264C109.867 20.0868 109.872 20.0472 109.9 20.0101C109.937 19.9582 110.006 19.921 110.036 19.8616C110.06 19.8146 110.055 19.7701 110.083 19.7231C110.117 19.6958 110.152 19.6686 110.184 19.6414C110.209 19.6092 110.209 19.5795 110.231 19.5474C110.281 19.5028 110.33 19.4558 110.38 19.4088C110.392 19.3915 110.39 19.3667 110.404 19.3519C110.528 19.243 110.672 19.1712 110.808 19.0772C110.842 19.0376 110.877 18.998 110.912 18.9609C110.991 18.9064 111.1 18.8693 111.199 18.8446C111.241 18.8347 111.285 18.852 111.315 18.8322C111.461 18.852 111.607 18.8718 111.751 18.8891C111.82 18.8941 111.889 18.899 111.956 18.9015C111.981 18.9238 112.003 18.946 112.025 18.9708C112.102 19.0252 112.184 19.0549 112.255 19.1094C112.278 19.144 112.302 19.1786 112.325 19.2133C112.493 19.3321 112.636 19.3519 112.693 19.5944C112.721 19.7206 112.636 19.8369 112.612 19.9285C112.575 20.072 112.577 20.2502 112.518 20.3788C112.503 20.4135 112.458 20.4184 112.439 20.4481C112.404 20.5026 112.406 20.5521 112.382 20.6214C112.357 20.6882 112.29 20.7426 112.278 20.8169C112.028 20.8837 111.783 20.9109 111.439 20.9109C111.327 20.9109 111.216 20.9109 111.105 20.9109C110.894 20.8564 110.679 20.8119 110.451 20.8639C110.333 20.8936 110.192 20.8688 110.095 20.8886C109.989 20.9109 109.914 20.854 109.853 20.8292C109.704 20.7723 109.541 20.7872 109.427 20.8762C109.38 20.8663 109.39 20.8515 109.36 20.8292C109.36 20.7698 109.36 20.708 109.36 20.6461Z" fill="white"/>
<path d="M130.173 25.0212C130.18 24.9791 130.148 24.9123 130.138 24.8604C130.118 24.7787 130.165 24.6673 130.138 24.6178C130.086 24.5139 129.742 24.5362 129.596 24.5733C129.317 24.6401 129.052 24.7342 128.782 24.8034C128.653 24.8381 128.5 24.7564 128.403 24.7342C128.369 24.7342 128.334 24.7342 128.299 24.7342C128.203 24.7045 128.022 24.6178 127.943 24.5609C127.901 24.5288 127.894 24.4619 127.861 24.4224C127.856 24.4174 127.728 24.3283 127.71 24.3184C127.584 24.2318 127.433 24.1996 127.376 24.0437C127.329 23.9151 127.433 23.7022 127.433 23.5364C127.433 23.3682 127.396 23.1256 127.446 22.9697C127.463 22.9153 127.498 22.8336 127.513 22.7619C127.52 22.6852 127.53 22.6084 127.537 22.5317C127.56 22.4575 127.616 22.3882 127.639 22.3115C127.676 22.1952 127.686 22.1036 127.73 21.9873C127.777 21.8784 127.847 21.7819 127.891 21.6656C128.02 21.6433 128.05 21.7275 128.146 21.7572C128.225 21.7844 128.29 21.772 128.364 21.8042C128.577 21.8908 128.866 22.0294 129.133 22.0591C129.193 22.064 129.267 22.0022 129.317 21.9898C129.455 21.9527 129.539 22.0418 129.675 22.0121C129.794 21.9848 129.987 22.022 130.133 21.9898C130.249 21.965 130.368 21.923 130.467 21.8982C130.598 21.8611 130.717 21.9626 130.814 21.9898C130.937 22.0244 131.296 22.0195 131.422 21.9898C131.484 21.9898 131.546 21.9898 131.606 21.9898C131.789 21.9403 132.034 21.8661 132.17 21.7596C132.219 21.7176 132.246 21.6112 132.306 21.5642C132.313 21.4305 132.239 21.2029 132.145 21.1484C132.036 21.0865 131.87 21.1162 131.754 21.0544C131.643 20.9975 131.588 20.8713 131.514 20.7772C131.524 20.6782 131.613 20.6461 131.581 20.5124C131.566 20.453 131.512 20.2353 131.534 20.1536C131.541 20.1264 131.583 20.0893 131.593 20.062C131.62 19.9779 131.603 19.7725 131.559 19.7156C131.526 19.6364 131.465 19.6686 131.388 19.6364C131.276 19.5869 131.205 19.4533 131.088 19.4162C131.098 19.2949 131.185 19.1662 131.123 19.0474C131.051 18.9089 130.841 18.8668 130.71 18.7827C130.648 18.7406 130.66 18.6738 130.618 18.6094C130.534 18.4832 130.215 18.3966 129.997 18.4016C129.957 18.4288 129.901 18.4164 129.849 18.4337C129.802 18.4511 129.757 18.5006 129.71 18.5154C129.618 18.5154 129.524 18.5154 129.435 18.5154C129.393 18.5253 129.341 18.5525 129.309 18.5624C129.237 18.5797 129.198 18.5377 129.161 18.5278C129.059 18.5006 128.742 18.607 128.69 18.6441C128.604 18.7059 128.497 18.8322 128.438 18.9188C128.416 18.9534 128.413 18.9881 128.381 19.0103C128.304 19.0648 128.272 19.1217 128.208 19.1836C128.161 19.2306 128.084 19.2553 128.047 19.3098C128.015 19.3568 128.007 19.4038 127.978 19.4483C127.918 19.535 127.817 19.6042 127.76 19.6909C127.696 19.7849 127.686 19.9037 127.621 20.0027C127.557 20.1016 127.463 20.2179 127.404 20.3145C127.381 20.3837 127.357 20.453 127.334 20.5248C127.28 20.6139 127.206 20.7228 127.161 20.8242C127.136 20.8836 127.149 20.9455 127.126 21.0098C127.109 21.0569 127.072 21.1039 127.057 21.1484C127.025 21.2449 127.035 21.3192 127 21.4157C126.99 21.4429 126.953 21.4751 126.943 21.4949C126.906 21.5666 126.921 21.6508 126.886 21.725C126.837 21.8314 126.76 21.9725 126.726 22.0937C126.721 22.1655 126.716 22.2323 126.713 22.3016C126.703 22.3338 126.676 22.3808 126.666 22.4154C126.659 22.4798 126.651 22.5392 126.644 22.601C126.617 22.6852 126.565 22.7718 126.54 22.8658C126.515 22.9623 126.562 23.0267 126.53 23.1207C126.5 23.1974 126.441 23.2964 126.414 23.3855C126.372 23.5191 126.377 23.7963 126.404 23.9274C126.431 24.0512 126.384 24.1798 126.426 24.2838C126.439 24.3135 126.481 24.3382 126.495 24.363C126.609 24.5684 126.713 24.7515 126.842 24.942C126.909 25.0435 127.02 25.1103 127.117 25.1845C127.151 25.2118 127.161 25.2712 127.198 25.3008C127.263 25.3479 127.359 25.4147 127.451 25.4765H130.212C130.257 25.3281 130.146 25.1672 130.173 25.0212ZM128.277 20.8638C128.302 20.8193 128.292 20.7698 128.312 20.7154C128.344 20.6263 128.406 20.5075 128.438 20.4159C128.46 20.3442 128.441 20.2452 128.483 20.1982C128.495 20.1833 128.527 20.1784 128.542 20.1635C128.601 20.0942 128.658 20.0175 128.735 19.968C128.836 19.8987 128.958 19.8492 129.022 19.7478C129.074 19.6711 129.081 19.5869 129.128 19.5053C129.198 19.3766 129.336 19.2207 129.463 19.1464C129.601 19.0648 129.893 19.1662 130.024 19.0796C130.23 19.0747 130.408 19.2231 130.472 19.3543C130.494 19.4013 130.482 19.4434 130.507 19.4929C130.541 19.5696 130.606 19.6488 130.633 19.7354C130.638 19.7997 130.64 19.8666 130.645 19.9309C130.67 20.0274 130.692 20.4035 130.633 20.4852C130.616 20.5075 130.571 20.5273 130.551 20.5545C130.467 20.6807 130.368 20.8935 130.242 20.9702C130.173 21.0123 130.069 20.9653 129.977 20.9925C129.512 21.141 128.596 21.2053 128.208 20.9826C128.22 20.9158 128.252 20.9084 128.277 20.8638Z" fill="white"/>
<path d="M134.227 24.9272C134.252 24.8654 134.274 24.8035 134.297 24.7416C134.398 24.5709 134.43 24.2814 134.48 24.0611C134.497 23.9918 134.467 23.9151 134.457 23.8656C134.428 23.7246 134.47 23.5588 134.492 23.4623C134.502 23.4128 134.475 23.3905 134.47 23.3682C134.452 23.3014 134.49 23.0737 134.504 23.0094C134.529 22.8956 134.452 22.8312 134.47 22.7421C134.509 22.5466 134.579 22.3363 134.631 22.1656C134.638 22.0517 134.645 21.9354 134.653 21.8191C134.663 21.7968 134.702 21.777 134.712 21.7498C134.73 21.7053 134.705 21.6162 134.7 21.589C134.692 21.5419 134.717 21.4949 134.722 21.4603C134.735 21.4133 134.707 21.3588 134.7 21.3217C134.69 21.2673 134.725 21.0173 134.747 20.9753C134.762 20.9406 134.811 20.9035 134.826 20.8565C134.826 20.8218 134.826 20.7872 134.826 20.755C134.843 20.6832 134.878 20.6041 134.918 20.5471C134.955 20.4952 135.014 20.4927 135.066 20.4556C135.088 20.4407 135.133 20.3615 135.145 20.3417C135.168 20.27 135.192 20.2032 135.215 20.1339C135.249 20.0398 135.356 20.0596 135.457 20.0299C135.539 20.0052 135.63 19.9681 135.71 19.9483C135.833 19.9508 135.955 19.9557 136.078 19.9607C136.202 19.926 136.338 19.7751 136.539 19.8344C136.677 19.874 136.749 20.0126 136.86 20.077C136.969 20.1388 137.137 20.1388 137.241 20.2032C137.355 20.2749 137.467 20.3987 137.585 20.468C137.652 20.5075 137.741 20.5199 137.793 20.5719C137.835 20.614 137.865 20.6808 137.919 20.7105C137.956 20.7179 137.996 20.7253 138.033 20.7327C138.093 20.76 138.162 20.8169 138.229 20.8391C138.402 20.8936 138.783 20.7748 138.85 20.7129C138.884 20.6709 138.949 20.5026 138.917 20.4135C138.909 20.3863 138.87 20.3615 138.862 20.3319C138.83 20.2378 138.87 20.1215 138.828 20.0423C138.795 19.9829 138.726 19.9359 138.689 19.8815C138.652 19.8295 138.644 19.7676 138.607 19.7181C138.573 19.6736 138.513 19.6686 138.469 19.6365C138.404 19.587 138.34 19.5202 138.261 19.4855C138.154 19.441 138.06 19.4459 137.952 19.4039C137.862 19.3742 137.786 19.29 137.699 19.2554C137.65 19.2356 137.585 19.2603 137.526 19.243C137.457 19.2232 137.4 19.1638 137.33 19.1391C137.172 19.0871 136.897 19.102 136.699 19.1044C136.638 19.1465 136.526 19.1143 136.447 19.1391C136.4 19.1539 136.346 19.1935 136.296 19.2084C136.202 19.2381 136.148 19.2381 136.053 19.2653C135.945 19.2999 135.846 19.3742 135.742 19.4162C135.658 19.436 135.573 19.4558 135.492 19.4732C135.415 19.5078 135.346 19.5746 135.274 19.6117C135.217 19.6439 135.155 19.6365 135.103 19.6686C135.012 19.7256 134.918 19.8246 134.838 19.8988C134.836 19.8988 134.831 19.8988 134.829 19.8988C134.816 19.7949 134.806 19.6934 134.794 19.5895C134.784 19.5548 134.737 19.5276 134.725 19.4954C134.722 19.4633 134.717 19.4336 134.715 19.4014C134.658 19.2752 134.487 19.243 134.346 19.196C134.264 19.1688 134.103 19.1317 134.024 19.196C133.928 19.2752 134.002 19.4187 133.967 19.5647C133.928 19.7305 133.906 19.9458 133.863 20.119C133.836 20.2403 133.868 20.3417 133.841 20.4531C133.816 20.5521 133.757 20.6461 133.727 20.7278C133.727 20.7575 133.727 20.7822 133.727 20.8095C133.708 20.8738 133.67 20.9802 133.646 21.0396C133.638 21.099 133.631 21.1559 133.623 21.2128C133.601 21.2673 133.547 21.3291 133.532 21.386C133.532 21.4256 133.532 21.4652 133.532 21.5024C133.497 21.6508 133.482 21.8364 133.45 21.975C133.45 22.0171 133.45 22.0616 133.45 22.1037C133.44 22.1507 133.406 22.2101 133.393 22.2546C133.373 22.3289 133.393 22.3883 133.371 22.4501C133.359 22.4873 133.317 22.5343 133.302 22.5664C133.294 22.6085 133.287 22.6506 133.279 22.6951C133.267 22.7223 133.223 22.757 133.21 22.7867C133.198 22.8387 133.188 22.8931 133.175 22.9475C133.153 22.9896 133.099 23.0465 133.084 23.096C133.049 23.2 133.081 23.294 133.027 23.3732C132.975 23.4499 132.864 23.5142 132.797 23.5786C132.797 23.7196 132.869 23.7048 132.901 23.7988C132.901 23.8879 132.901 23.9745 132.901 24.0661C132.908 24.0883 132.94 24.123 132.945 24.1477C132.985 24.2863 132.923 24.462 132.901 24.5659C132.876 24.6847 132.906 24.8555 132.923 24.9446C132.923 25.0163 132.923 25.0906 132.923 25.1648C132.955 25.2638 133.069 25.3232 133.119 25.4049C133.128 25.4246 133.143 25.4444 133.156 25.4642H133.977C134.012 25.3727 134.012 25.2539 134.052 25.1623C134.089 25.0708 134.178 25.0139 134.227 24.9272Z" fill="white"/>
<path d="M118.574 10.7972C118.56 10.7873 118.54 10.7898 118.527 10.7749C118.508 10.7477 118.522 10.7106 118.505 10.6858C118.453 10.6042 118.349 10.6289 118.275 10.5695C118.238 10.5398 118.203 10.4903 118.161 10.4656C118.082 10.4186 117.659 10.332 117.552 10.3592C117.53 10.3641 117.483 10.4062 117.458 10.4062C117.429 10.4062 117.367 10.379 117.344 10.3716C117.305 10.3617 117.241 10.379 117.218 10.3839C117.087 10.4136 116.961 10.3889 116.874 10.3493C116.894 10.2404 116.983 10.1488 117.013 10.0499C117.013 10.0004 117.013 9.9484 117.013 9.90138C117.03 9.83456 117.065 9.76527 117.082 9.70588C117.085 9.63659 117.09 9.5673 117.092 9.49554C117.109 9.42377 117.156 9.18374 117.104 9.10455C117.092 9.03278 117.08 9.08228 117.057 9.04763C117.057 9.01051 117.057 8.97092 117.057 8.93132C117.045 8.88183 117.04 8.75315 117.01 8.70118C116.983 8.65169 116.904 8.62942 116.872 8.58487C116.845 8.54775 116.85 8.51064 116.825 8.46857C116.773 8.37948 116.392 8.20378 116.206 8.24832C116.035 8.28544 115.899 8.33741 115.701 8.35226C115.682 8.45372 115.647 8.5626 115.62 8.67396C115.602 8.75562 115.659 8.82491 115.642 8.88183C115.625 8.9437 115.548 9.02288 115.528 9.08722C115.491 9.19363 115.526 9.30252 115.493 9.4114C115.479 9.46089 115.427 9.49306 115.412 9.54008C115.375 9.65144 115.404 9.78755 115.402 9.8989C115.402 9.94592 115.318 10.0202 115.298 10.0598C115.268 10.1142 115.298 10.1736 115.276 10.2454C115.256 10.3047 115.211 10.3839 115.194 10.4507C115.05 10.4755 115.021 10.3641 114.919 10.3245C114.63 10.2082 114.219 10.2033 113.907 10.3023C113.868 10.3122 113.823 10.3047 113.793 10.3245C113.756 10.3369 113.749 10.3419 113.736 10.3815C113.727 10.3938 113.734 10.3839 113.727 10.4062C113.764 10.4483 113.803 10.4903 113.843 10.5324C113.912 10.5819 114.011 10.6264 114.061 10.6933C114.098 10.7477 114.115 10.8021 114.152 10.8541C114.187 10.8863 114.221 10.916 114.256 10.9457C114.273 10.9754 114.251 11.015 114.266 11.0521C114.266 11.0521 114.38 11.1758 114.38 11.1783C114.395 11.1882 114.538 11.2822 114.543 11.2847C114.63 11.3193 114.714 11.3045 114.786 11.354C114.823 11.3961 114.862 11.4381 114.9 11.4827C114.904 11.594 114.857 11.6608 114.83 11.7697C114.825 11.844 114.823 11.9157 114.818 11.9875C114.801 12.032 114.724 12.0766 114.726 12.1384C114.726 12.183 114.786 12.23 114.773 12.2894C114.761 12.3463 114.719 12.428 114.704 12.4849C114.709 12.5839 114.711 12.6853 114.714 12.7843C114.615 13.1333 114.615 13.5218 114.518 13.8682C114.526 13.9524 114.533 14.039 114.541 14.1231C114.526 14.18 114.489 14.2642 114.469 14.331C114.469 14.4077 114.469 14.4869 114.469 14.5611C114.457 14.5982 114.429 14.623 114.424 14.6774C114.422 14.6799 114.417 14.6848 114.415 14.6898C114.367 14.6923 114.303 14.6972 114.276 14.6774C114.269 14.6774 114.261 14.6774 114.254 14.6774C114.254 14.7789 114.286 14.8457 114.298 14.9199C114.311 14.9843 114.259 14.9942 114.276 15.0585C114.288 15.1006 114.343 15.1451 114.355 15.1847C114.385 15.2738 114.348 15.6425 114.333 15.7143C114.318 15.7885 114.343 15.8801 114.355 15.9345C114.367 16.0236 114.377 16.1127 114.39 16.2018C114.422 16.3008 114.481 16.3923 114.516 16.479C114.546 16.5507 114.551 16.6225 114.608 16.6646C114.687 16.7264 114.964 16.9293 115.112 16.8972C115.152 16.8873 115.194 16.8526 115.226 16.8378C115.295 16.8081 115.37 16.7932 115.409 16.7338C115.461 16.6547 115.568 16.2191 115.536 16.0657C115.516 15.9667 115.466 15.6994 115.501 15.5708C115.516 15.5237 115.558 15.4668 115.57 15.4198C115.59 15.3382 115.511 15.2986 115.536 15.2119C115.555 15.1501 115.607 15.0585 115.63 15.0041C115.635 14.9472 115.637 14.8878 115.639 14.8309C115.647 14.8036 115.667 14.7517 115.674 14.7269C115.674 14.67 115.674 14.6106 115.674 14.5537C115.694 14.4597 115.704 14.3409 115.684 14.2171C115.682 14.1973 115.662 14.1404 115.674 14.1033C115.684 14.0761 115.724 14.0414 115.731 14.0093C115.731 13.9647 115.731 13.9177 115.731 13.8707C115.756 13.794 115.738 13.69 115.766 13.596C115.773 13.5713 115.805 13.5267 115.813 13.5044C115.832 13.4401 115.793 13.3683 115.79 13.3312C115.785 13.257 115.832 13.1555 115.847 13.1011C115.865 13.0392 115.823 13.007 115.847 12.9402C115.86 12.9279 115.872 12.9155 115.882 12.9056C115.887 12.8586 115.889 12.814 115.894 12.767C115.904 12.7348 115.941 12.6878 115.951 12.6507C115.956 12.6086 115.961 12.5666 115.961 12.5245C115.978 12.4725 116.028 12.428 116.043 12.376C116.043 12.3166 116.043 12.2597 116.043 12.2028C116.055 12.1558 116.097 12.1013 116.112 12.0518C116.154 11.9306 116.162 11.7648 116.216 11.6584C116.238 11.6361 116.261 11.6138 116.285 11.5891C116.355 11.5866 116.412 11.5396 116.468 11.5544C116.501 11.5643 116.565 11.6015 116.595 11.6114C116.671 11.6114 116.748 11.6114 116.825 11.6114C116.906 11.6336 116.986 11.6782 117.09 11.6336C117.142 11.6114 117.216 11.5198 117.285 11.5297C117.297 11.5322 117.332 11.5619 117.342 11.5643C117.456 11.5594 117.572 11.5569 117.686 11.5544C117.765 11.5742 118.015 11.6509 118.136 11.6114C118.146 11.6089 118.173 11.5792 118.181 11.5767C118.218 11.5718 118.258 11.5693 118.295 11.5643C118.319 11.5544 118.339 11.5148 118.364 11.5074C118.426 11.5049 118.488 11.4975 118.547 11.495C118.634 11.4629 118.715 11.3292 118.743 11.2402C118.812 11.0224 118.681 10.8813 118.574 10.7972Z" fill="white"/>
<path d="M124.127 10.9304C124.093 10.8983 124.08 10.8315 124.048 10.8042C123.984 10.782 123.924 10.7572 123.862 10.735C123.813 10.6978 123.796 10.6038 123.749 10.5617C123.607 10.438 123.427 10.3266 123.266 10.2277C123.132 10.146 122.86 10.1584 122.704 10.1014C122.647 10.0792 122.65 10.0371 122.61 9.99751C122.588 9.97276 122.444 9.88368 122.415 9.8713C122.276 9.84903 122.14 9.82429 122.001 9.80201C121.905 9.76737 121.801 9.68571 121.702 9.65354C121.554 9.60404 121.098 9.69313 121.012 9.75747C120.974 9.78717 120.974 9.86141 120.942 9.89605C120.918 9.92327 120.868 9.93317 120.848 9.96534C120.841 10.0074 120.833 10.0495 120.826 10.094C120.801 10.1559 120.744 10.1757 120.732 10.2672C120.722 10.2672 120.71 10.2672 120.697 10.2672C120.648 10.3687 120.564 10.4355 120.502 10.5197C120.366 10.7077 120.242 10.9205 120.155 11.1556C120.155 11.2126 120.155 11.2719 120.155 11.3289C120.141 11.3734 120.079 11.4328 120.064 11.4773C120.064 11.5095 120.064 11.5392 120.064 11.5714C120.042 11.6407 120.002 11.7372 119.982 11.8263C119.98 11.9302 119.975 12.0341 119.972 12.1381C119.96 12.1925 119.938 12.3311 119.96 12.4029C119.967 12.4251 119.999 12.4523 120.004 12.4721C120.027 12.539 119.997 12.6033 120.027 12.6577C120.049 12.6949 120.118 12.7221 120.153 12.7518C120.19 12.7765 120.249 12.873 120.269 12.9126C120.294 12.9671 120.252 13.0067 120.269 13.0636C120.282 13.1106 120.356 13.2195 120.395 13.2492C120.415 13.264 120.44 13.2566 120.455 13.2715C120.484 13.3086 120.497 13.3704 120.534 13.3977C120.836 13.6154 121.274 13.6798 121.581 13.8951C121.61 13.9371 121.643 13.9792 121.672 14.0213C121.737 14.0856 121.803 14.1178 121.878 14.1722C121.92 14.1994 121.917 14.2564 121.947 14.2984C121.967 14.3256 122.011 14.3256 122.041 14.343C122.269 14.4766 121.957 14.8602 121.902 14.9443C121.848 15.0284 121.828 15.125 121.766 15.1992C121.717 15.2536 121.63 15.2734 121.568 15.313C121.511 15.3526 121.455 15.417 121.395 15.4541C121.341 15.4714 121.289 15.4912 121.234 15.5085C121.219 15.5258 121.205 15.5407 121.19 15.5555C121.165 15.5555 121.143 15.5555 121.12 15.5555C121.019 15.5828 120.893 15.5902 120.752 15.5902C120.682 15.5902 120.613 15.5902 120.546 15.5902C120.497 15.6026 120.47 15.6248 120.395 15.6248C120.405 15.4516 120.566 15.3823 120.512 15.1398C120.497 15.0779 120.46 15.0309 120.442 14.9888C120.44 14.9517 120.435 14.9121 120.43 14.875C120.408 14.828 120.348 14.8107 120.316 14.7711C120.274 14.7166 120.227 14.63 120.18 14.5855C120.113 14.5236 120.007 14.5088 119.928 14.4568C119.863 14.4197 119.797 14.3529 119.72 14.3306C119.641 14.3083 119.589 14.3281 119.512 14.3306C119.487 14.3504 119.46 14.3702 119.433 14.39C119.361 14.4914 119.346 14.6597 119.203 14.6894C119.18 14.7018 119.096 14.6671 119.042 14.6671C119.024 14.6845 119.015 14.6944 118.985 14.7018C118.98 14.8107 118.93 14.8602 118.903 14.9443C118.866 15.0656 118.874 15.1744 118.834 15.3031C118.799 15.4194 118.74 15.5803 118.708 15.6966C118.69 15.7585 118.728 15.8253 118.73 15.8574C118.723 15.9267 118.715 15.996 118.708 16.0628C118.713 16.0802 118.75 16.1074 118.755 16.1198C118.779 16.1816 118.725 16.2187 118.755 16.2682C118.767 16.293 118.807 16.2979 118.824 16.3153C119.012 16.5429 119.22 16.5058 119.559 16.4316C119.735 16.392 119.873 16.4712 119.985 16.5008C120.066 16.5107 120.145 16.5182 120.227 16.5256C120.326 16.5578 120.361 16.6691 120.433 16.7211C120.482 16.7533 120.549 16.7483 120.593 16.778C120.613 16.8028 120.63 16.83 120.653 16.8572C120.715 16.924 120.848 17.0255 120.94 17.0527C120.977 17.0477 121.017 17.0453 121.054 17.0428C121.113 17.0527 121.338 17.0948 121.422 17.0651C121.507 17.0378 121.546 16.9389 121.628 16.9042C121.707 16.8918 121.781 16.8795 121.858 16.8696C121.92 16.8448 121.979 16.7755 122.044 16.7533C122.076 16.7483 122.11 16.7458 122.145 16.7409C122.187 16.726 122.482 16.5701 122.501 16.5429C122.524 16.5107 122.514 16.4662 122.536 16.4291C122.571 16.4043 122.605 16.3746 122.64 16.3474C122.724 16.2237 122.783 16.095 122.87 15.9787C122.942 15.8847 123.068 15.8401 123.113 15.7139C123.147 15.6125 123.12 15.4516 123.103 15.3675C123.068 15.2165 123.095 15.0878 123.046 14.9517C123.031 14.9121 122.981 14.8948 122.967 14.8577C122.962 14.8131 122.959 14.7661 122.957 14.7191C122.939 14.6721 122.887 14.6449 122.863 14.6053C122.84 14.5657 122.853 14.5211 122.828 14.4766C122.803 14.4543 122.774 14.4321 122.749 14.4098C122.727 14.3677 122.769 14.3603 122.749 14.3157C122.731 14.3058 122.717 14.2935 122.704 14.2811C122.682 14.2489 122.667 14.1821 122.657 14.1425C122.62 13.9817 122.702 13.8258 122.635 13.7169C122.566 13.6055 122.457 13.5511 122.368 13.462C122.296 13.3902 122.249 13.2937 122.162 13.2319C122.118 13.1972 122.053 13.1972 122.016 13.1626C121.996 13.1477 121.997 13.1106 121.982 13.0933C121.927 13.0463 121.826 13.0487 121.761 13.0116C121.722 12.9893 121.685 12.9324 121.648 12.9077C121.601 12.8805 121.554 12.8854 121.499 12.8607C121.417 12.8285 121.326 12.7815 121.244 12.7345C121.172 12.6899 121.106 12.6181 121.039 12.5736C121.007 12.5637 120.977 12.5513 120.947 12.539C120.9 12.5043 120.88 12.435 120.833 12.4004C120.836 12.1306 120.893 11.8956 120.947 11.6852C120.977 11.5739 120.918 11.3907 120.947 11.3041C120.984 11.1878 121.093 11.1037 121.153 11.0072C121.2 10.9329 121.21 10.8389 121.266 10.7745C121.313 10.7226 121.422 10.7176 121.484 10.683C121.554 10.6459 121.677 10.5221 121.737 10.4627C121.774 10.4627 121.806 10.4627 121.841 10.4627C121.925 10.5246 121.863 10.6731 121.885 10.7745C121.902 10.8513 121.94 10.9799 121.989 11.0294C122.031 11.0567 122.073 11.0814 122.115 11.1111C122.14 11.1433 122.128 11.1928 122.162 11.215C122.207 11.2423 122.259 11.2324 122.301 11.262C122.338 11.3041 122.375 11.3462 122.415 11.3883C122.449 11.413 122.496 11.4105 122.529 11.4377C122.553 11.4575 122.566 11.5021 122.585 11.5293C122.64 11.5788 122.694 11.6283 122.746 11.6803C122.769 11.7124 122.783 11.7743 122.816 11.7941C122.877 11.8411 122.967 11.8263 123.046 11.8535C123.066 11.8584 123.095 11.8931 123.115 11.9005C123.259 11.9475 123.414 11.9228 123.553 11.9104C123.59 11.9055 123.65 11.9327 123.702 11.9203C124.055 11.8386 124.286 11.8287 124.38 11.4823C124.394 11.4377 124.375 11.3586 124.37 11.3338C124.31 11.0839 124.273 11.0715 124.127 10.9304Z" fill="white"/>
<path d="M113.082 10.7745C113.04 10.7522 113.005 10.7646 112.968 10.7423C112.934 10.72 112.901 10.6656 112.867 10.6483C112.765 10.5988 112.619 10.5716 112.51 10.5443C112.468 10.5493 112.426 10.5518 112.384 10.5567C112.337 10.5443 112.26 10.5221 112.211 10.5097C112.134 10.5047 112.06 10.5023 111.983 10.4998C111.902 10.4775 111.746 10.4355 111.624 10.4652C111.528 10.4874 111.417 10.5245 111.337 10.5567C111.276 10.5617 111.214 10.5641 111.154 10.5691C111.127 10.5963 111.1 10.6235 111.073 10.6483C111.045 10.6483 111.021 10.6483 110.991 10.6483C110.917 10.6705 110.845 10.7176 110.805 10.7745C110.798 10.7745 110.79 10.7745 110.783 10.7745C110.672 10.6013 110.437 10.329 110.266 10.2202C110.216 10.2053 110.167 10.1905 110.117 10.1756C110.095 10.1583 110.1 10.1286 110.083 10.1063C110.056 10.0692 109.966 10.0222 109.922 10.0024C109.825 9.96033 109.694 10.0123 109.578 9.97765C109.551 9.9727 109.511 9.94053 109.484 9.93311C109.405 9.93311 109.323 9.93311 109.241 9.93311C109.212 9.98012 109.157 10.0247 109.14 10.0841C109.061 10.3191 109.296 10.5295 109.241 10.7299C109.209 10.8512 109.177 11.0467 109.15 11.1803C109.14 11.2397 109.172 11.2917 109.15 11.3659C109.137 11.408 109.105 11.455 109.093 11.5045C109.093 11.5763 109.093 11.6505 109.093 11.7247C109.058 11.8782 109.058 12.0712 109.011 12.232C109.001 12.2692 108.964 12.3211 108.954 12.3582C108.954 12.4077 108.954 12.4523 108.954 12.4993C108.949 12.5117 108.925 12.5463 108.92 12.5562C108.92 12.6379 108.92 12.7171 108.92 12.7987C108.892 12.9002 108.836 13.0338 108.863 13.1674C108.858 13.212 108.855 13.2615 108.85 13.306C108.853 13.3407 108.87 13.3728 108.875 13.3976C108.897 13.4966 108.84 13.5906 108.818 13.6624C108.801 13.7143 108.746 13.8109 108.771 13.8579C108.754 13.9643 108.623 13.9717 108.588 14.1004C108.561 14.1944 108.568 14.3676 108.588 14.4592C108.615 14.5928 108.578 14.7067 108.608 14.8279C108.645 14.964 108.714 15.0878 108.746 15.2313C108.766 15.308 108.741 15.4243 108.737 15.4837C108.719 15.6767 108.749 15.8499 108.781 15.9811C108.801 16.0652 108.754 16.1939 108.791 16.2583C108.798 16.3597 108.875 16.3869 108.917 16.4538C109.031 16.6319 109.125 16.8101 109.343 16.8819C109.412 16.9041 109.506 16.872 109.585 16.8942C109.61 16.8992 109.667 16.9338 109.699 16.9264C109.815 16.9066 110.036 16.7755 110.08 16.674C110.132 16.5478 110.08 16.3919 110.058 16.2929C110.041 16.2286 110.078 16.2112 110.058 16.1519C110.038 16.1024 109.989 16.0553 109.976 16.0034C109.986 15.9415 109.994 15.8796 109.999 15.8178C109.989 15.7732 109.937 15.7039 109.954 15.6446C109.961 15.6173 110.004 15.5975 109.989 15.5406C109.984 15.5159 109.952 15.4911 109.942 15.4713C109.942 15.4441 109.942 15.4194 109.942 15.3897C109.91 15.2635 109.902 15.1199 109.862 14.9987C109.848 14.9541 109.806 14.9121 109.793 14.87C109.773 14.8007 109.823 14.7463 109.828 14.6968C109.833 14.6547 109.801 14.573 109.818 14.5136C109.828 14.4716 109.853 14.3949 109.862 14.3528C109.872 14.3058 109.845 14.2835 109.84 14.2588C109.843 14.1796 109.848 14.0979 109.85 14.0187C109.828 13.9371 109.83 13.8306 109.85 13.7416C109.85 13.6995 109.85 13.6574 109.85 13.6154C109.872 13.5906 109.897 13.5683 109.919 13.5461C109.959 13.4743 109.989 13.3902 110.023 13.3258C110.056 13.2664 110.038 13.1872 110.093 13.1526C110.159 13.113 110.234 13.1056 110.298 13.061C110.348 13.0264 110.37 12.9522 110.412 12.9101C110.466 12.8581 110.568 12.8383 110.607 12.774C110.637 12.722 110.694 12.3508 110.64 12.2642C110.64 12.1256 110.632 12.0068 110.699 11.9425C110.731 11.9054 110.786 11.893 110.813 11.8485C110.847 11.7916 110.865 11.7247 110.917 11.6876C110.969 11.6505 111.048 11.6381 111.078 11.5837C111.125 11.502 111.105 11.3907 111.159 11.3189C111.228 11.1234 111.659 11.163 111.837 11.2372C111.847 11.2496 111.862 11.2595 111.872 11.2719C111.926 11.2818 111.981 11.2892 112.035 11.2966C112.055 11.3041 112.085 11.3436 112.105 11.3535C112.147 11.3684 112.189 11.3857 112.231 11.4006C112.335 11.4624 112.451 11.5664 112.575 11.6084C112.639 11.6282 112.696 11.606 112.748 11.5961C112.842 11.5961 112.938 11.5961 113.033 11.5961C113.198 11.5515 113.292 11.4402 113.332 11.2719C113.389 11.0541 113.191 10.8339 113.082 10.7745Z" fill="white"/>
<path d="M101.338 16.8474C101.412 16.8845 101.417 16.9909 101.58 16.9538C101.649 16.934 101.719 16.9142 101.786 16.8969C101.838 16.8524 101.838 16.7954 101.912 16.7682C101.929 16.6247 101.946 16.4416 101.981 16.2956C102.013 16.152 101.924 16.0531 101.971 15.9244C102.068 15.6497 102.216 15.3998 102.315 15.1399C102.34 15.0756 102.31 15.0038 102.337 14.9296C102.362 14.9048 102.392 14.8751 102.419 14.8504C102.427 14.7935 102.434 14.7341 102.441 14.6772C102.478 14.6277 102.511 14.5757 102.545 14.5262C102.521 14.4272 102.592 14.405 102.615 14.3307C102.617 14.2614 102.622 14.1921 102.624 14.1228C102.642 14.0684 102.701 14.0387 102.726 13.9966C102.743 13.9496 102.758 13.9051 102.77 13.8581C102.869 13.8407 103.011 13.8581 103.08 13.9051C103.1 13.9249 103.119 13.9422 103.137 13.962C103.201 13.9892 103.32 13.9917 103.379 14.0065C103.518 14.0437 103.738 14.0214 103.862 13.9966C104.052 13.9546 104.369 13.9942 104.54 14.0313C104.646 14.0536 104.666 14.0041 104.758 14.056C104.77 14.0907 104.797 14.1476 104.805 14.1699C104.829 14.2441 104.753 14.3505 104.735 14.4C104.725 14.4841 104.713 14.5633 104.701 14.6425C104.678 14.7168 104.634 14.8108 104.609 14.8974C104.565 15.0632 104.614 15.2241 104.53 15.3354C104.51 15.3602 104.483 15.38 104.448 15.3602C104.381 15.3577 104.337 15.3626 104.3 15.3824C104.307 15.4938 104.354 15.5631 104.381 15.6472C104.384 15.6868 104.389 15.7264 104.391 15.7635C104.419 15.8452 104.476 15.9442 104.508 16.0159C104.515 16.0654 104.523 16.1174 104.53 16.1669C104.56 16.2535 104.634 16.3154 104.678 16.3847C104.698 16.4391 104.718 16.4935 104.735 16.548C104.819 16.6717 105.052 16.7484 105.161 16.8598C105.426 16.8499 105.723 16.4886 105.794 16.2708C105.822 16.1867 105.787 16.0877 105.819 15.9937C105.844 15.9194 105.913 15.7982 105.933 15.7165C105.928 15.6893 105.926 15.6645 105.921 15.6373C105.926 15.5086 105.928 15.3824 105.933 15.2562C106.002 14.9518 105.992 14.5831 106.082 14.2862C106.148 14.2689 106.237 14.2317 106.302 14.2169C106.401 14.2293 106.5 14.2392 106.601 14.2515C106.923 14.2095 107.309 14.155 107.383 13.8581C107.41 13.7467 107.336 13.6749 107.314 13.6056C107.262 13.4497 107.208 13.3607 107.084 13.2839C107.032 13.2691 106.977 13.2518 106.925 13.2369C106.873 13.2048 106.836 13.1305 106.774 13.1082C106.683 13.1058 106.591 13.1008 106.5 13.0984C106.46 13.0885 106.435 13.0538 106.406 13.0414C106.336 13.0315 106.267 13.0167 106.2 13.0068C106.153 12.987 106.114 12.9301 106.064 12.9029C106.039 12.7816 106.064 12.6356 106.087 12.5218C106.087 12.4154 106.087 12.3139 106.087 12.21C106.091 12.1852 106.114 12.1159 106.121 12.0838C106.121 12.0244 106.121 11.9674 106.121 11.9105C106.138 11.8586 106.195 11.8091 106.213 11.7596C106.225 11.6136 106.235 11.4676 106.247 11.3216C106.25 11.0791 105.958 10.7054 106.131 10.4777C106.178 10.3886 106.284 10.401 106.383 10.3639C106.492 10.3243 106.641 10.2426 106.693 10.1461C106.7 10.104 106.71 10.062 106.718 10.0174C106.797 9.7477 106.606 9.58437 106.475 9.45322C106.443 9.41857 106.413 9.38393 106.383 9.34928C106.275 9.29237 106.106 9.28 105.983 9.24535C105.859 9.21071 105.668 9.27257 105.569 9.21071C105.475 9.20328 105.361 9.07955 105.305 9.02511C105.23 9.03748 105.198 9.08202 105.144 9.11667C105.139 9.11914 105.136 9.12409 105.131 9.12657C105.089 9.05728 105.05 8.96324 104.973 8.93107C104.933 8.92612 104.894 8.91622 104.857 8.9088C104.772 8.86426 104.777 8.83704 104.626 8.83951C104.572 8.88158 104.456 8.95334 104.396 8.97809C104.354 8.99789 104.317 8.98304 104.282 9.00036C104.233 9.03006 104.193 9.1043 104.144 9.12904C104.104 9.15131 104.057 9.13152 104.03 9.16369C104.02 9.19833 104.008 9.23298 103.995 9.26762C103.911 9.42847 103.854 9.63882 103.753 9.78729C103.698 9.86896 103.59 9.94815 103.535 10.0298C103.505 10.0694 103.505 10.1263 103.476 10.1684C103.389 10.302 103.28 10.4356 103.201 10.5718C103.164 10.6311 103.194 10.7178 103.166 10.792C103.142 10.8588 103.011 11.0073 102.971 11.0791C102.944 11.1285 102.988 11.183 102.959 11.23C102.919 11.2943 102.82 11.3389 102.775 11.4032C102.766 11.4206 102.699 11.5344 102.694 11.5418C102.694 11.574 102.694 11.6037 102.694 11.6358C102.679 11.6705 102.612 11.6903 102.592 11.7299C102.57 11.7695 102.577 11.8091 102.558 11.8462C102.511 11.9204 102.436 11.9947 102.397 12.0763C102.382 12.1407 102.365 12.205 102.352 12.2718C102.31 12.3881 102.231 12.4871 102.154 12.5737C102.068 12.5663 102.07 12.5267 102.018 12.5044C101.941 12.4921 101.865 12.4822 101.788 12.4698C101.761 12.4945 101.734 12.5168 101.709 12.5391C101.704 12.6727 101.721 12.7989 101.778 12.9078C101.828 13.0068 101.934 13.081 101.882 13.2543C101.855 13.3458 101.795 13.4398 101.753 13.519C101.744 13.5735 101.731 13.6279 101.719 13.6799C101.699 13.7343 101.647 13.8086 101.625 13.8655C101.622 13.8977 101.62 13.9274 101.615 13.9595C101.593 14.009 101.533 14.0684 101.511 14.1204C101.511 14.1723 101.511 14.2218 101.511 14.2713C101.496 14.3159 101.459 14.3901 101.432 14.4347C101.377 14.5213 101.244 14.5658 101.172 14.6499V16.8029C101.174 16.8053 101.177 16.8103 101.179 16.8128C101.221 16.8326 101.286 16.8227 101.338 16.8474ZM103.416 12.5985C103.449 12.5119 103.406 12.4079 103.429 12.3337C103.466 12.21 103.557 12.1679 103.624 12.0813C103.669 12.0219 103.716 11.9279 103.773 11.8833C103.81 11.8561 103.862 11.8388 103.889 11.8041C103.919 11.762 103.926 11.7076 103.958 11.6655C103.998 11.6111 104.075 11.5641 104.107 11.5047C104.141 11.4453 104.129 11.329 104.176 11.2844C104.208 11.2548 104.275 11.2721 104.302 11.2374C104.369 11.1558 104.369 11.0098 104.428 10.9281C104.473 10.8662 104.565 10.8266 104.624 10.7771C104.656 10.7499 104.641 10.6831 104.669 10.6509C104.678 10.641 104.706 10.6386 104.716 10.6287C104.765 10.5792 104.807 10.5173 104.842 10.453C104.862 10.453 104.881 10.453 104.899 10.453C104.921 10.5718 104.936 10.7549 104.899 10.9058C104.884 10.985 104.867 11.0667 104.852 11.1459C104.862 11.2127 104.842 11.4082 104.852 11.4478C104.906 11.6358 104.921 12.158 104.874 12.3708C104.849 12.4896 104.859 12.8484 104.805 12.9128C104.805 12.9227 104.805 12.9276 104.805 12.9375C104.711 12.9474 104.604 12.9424 104.518 12.9251C104.428 12.9053 104.322 12.935 104.265 12.9474C104.161 12.9721 104.015 12.9424 103.931 12.9251C103.859 12.9103 103.785 12.9474 103.736 12.9598C103.565 13.0018 103.382 12.8905 103.345 12.7865C103.33 12.7346 103.402 12.6504 103.416 12.5985Z" fill="white"/>
</g>
<defs>
<clipPath id="clip0_631_2082">
<rect width="140" height="43.8629" fill="white"/>
</clipPath>
</defs>
</svg>
