<svg width="40" height="40" viewBox="0 0 40 40" fill="none" xmlns="http://www.w3.org/2000/svg">
<g clip-path="url(#clip0_631_2124)">
<path d="M25.8333 23.1331H24.5167L24.05 22.6831C25.6833 20.7831 26.6667 18.3165 26.6667 15.6331C26.6667 9.64981 21.8167 4.7998 15.8333 4.7998C9.85 4.7998 5 9.64981 5 15.6331C5 21.6165 9.85 26.4665 15.8333 26.4665C18.5167 26.4665 20.9833 25.4831 22.8833 23.8498L23.3333 24.3165V25.6331L31.6667 33.9498L34.15 31.4665L25.8333 23.1331ZM15.8333 23.1331C11.6833 23.1331 8.33333 19.7831 8.33333 15.6331C8.33333 11.4831 11.6833 8.13314 15.8333 8.13314C19.9833 8.13314 23.3333 11.4831 23.3333 15.6331C23.3333 19.7831 19.9833 23.1331 15.8333 23.1331Z" fill="black"/>
</g>
<defs>
<clipPath id="clip0_631_2124">
<rect width="40" height="40" fill="white"/>
</clipPath>
</defs>
</svg>
